<?xml version="1.0" encoding="UTF-8" standalone="no"?>
<!-- Created with Inkscape (http://www.inkscape.org/) -->

<svg
   width="41.798294mm"
   height="41.744888mm"
   viewBox="0 0 41.798294 41.744888"
   version="1.1"
   id="svg1"
   inkscape:version="1.4 (e7c3feb1, 2024-10-09)"
   sodipodi:docname="remote-tech-us_v2.svg"
   xmlns:inkscape="http://www.inkscape.org/namespaces/inkscape"
   xmlns:sodipodi="http://sodipodi.sourceforge.net/DTD/sodipodi-0.dtd"
   xmlns:xlink="http://www.w3.org/1999/xlink"
   xmlns="http://www.w3.org/2000/svg"
   xmlns:svg="http://www.w3.org/2000/svg">
  <sodipodi:namedview
     id="namedview1"
     pagecolor="#bcbcbc"
     bordercolor="#000000"
     borderopacity="0.25"
     inkscape:showpageshadow="2"
     inkscape:pageopacity="0.0"
     inkscape:pagecheckerboard="true"
     inkscape:deskcolor="#d1d1d1"
     inkscape:document-units="mm"
     inkscape:zoom="3.9093022"
     inkscape:cx="81.728142"
     inkscape:cy="81.472341"
     inkscape:window-width="1440"
     inkscape:window-height="900"
     inkscape:window-x="0"
     inkscape:window-y="0"
     inkscape:window-maximized="0"
     inkscape:current-layer="layer23"
     showgrid="true">
    <inkscape:grid
       id="grid41"
       units="mm"
       originx="0"
       originy="0"
       spacingx="1"
       spacingy="1"
       empcolor="#0099e5"
       empopacity="0.30196078"
       color="#0099e5"
       opacity="0.14901961"
       empspacing="5"
       enabled="true"
       visible="true" />
  </sodipodi:namedview>
  <defs
     id="defs1">
    <linearGradient
       id="swatch243"
       inkscape:swatch="solid">
      <stop
         style="stop-color:#cccbca;stop-opacity:1;"
         offset="0"
         id="stop243" />
    </linearGradient>
    <linearGradient
       inkscape:collect="always"
       xlink:href="#swatch243"
       id="linearGradient1"
       gradientUnits="userSpaceOnUse"
       gradientTransform="matrix(0.04429298,0,0,0.04567047,78.263449,102.2433)"
       x1="109.02111"
       y1="454.89444"
       x2="255.66219"
       y2="454.89444" />
    <linearGradient
       inkscape:collect="always"
       xlink:href="#swatch243"
       id="linearGradient2"
       gradientUnits="userSpaceOnUse"
       gradientTransform="matrix(0.09969171,0,0,0.10284467,68.159412,76.324805)"
       x1="109.02111"
       y1="454.89444"
       x2="255.66219"
       y2="454.89444" />
    <linearGradient
       inkscape:collect="always"
       xlink:href="#swatch243"
       id="linearGradient3"
       gradientUnits="userSpaceOnUse"
       gradientTransform="matrix(0.20017882,0,0,0.19967333,49.82486,32.626847)"
       x1="109.02111"
       y1="454.89444"
       x2="255.66219"
       y2="454.89444" />
    <linearGradient
       inkscape:collect="always"
       xlink:href="#swatch243"
       id="linearGradient4"
       gradientUnits="userSpaceOnUse"
       gradientTransform="matrix(0.27630112,0,0,0.27577378,35.956151,-1.9757579)"
       x1="109.02111"
       y1="454.89444"
       x2="255.66219"
       y2="454.89444" />
    <linearGradient
       inkscape:collect="always"
       xlink:href="#swatch243"
       id="linearGradient5"
       gradientUnits="userSpaceOnUse"
       gradientTransform="matrix(0.26458333,0,0,1.2788194,54.058201,-366.67958)"
       x1="122"
       y1="374"
       x2="122"
       y2="374" />
  </defs>
  <g
     inkscape:label="Layer 1"
     inkscape:groupmode="layer"
     id="layer1"
     transform="translate(-65.4537, -102.595)">
    <path
       id="use604"
       style="display:inline;fill:none;stroke:url(#linearGradient1);stroke-width:1.13771"
       d="m 88.632934,125.38982 a 3.2476051,3.3485835 0 0 1 -4.591382,-0.005 3.2476051,3.3485835 0 0 1 0.0025,-4.73414 3.2476051,3.3485835 0 0 1 4.591384,-3.8e-4 3.2476051,3.3485835 0 0 1 0.0032,4.73415" />
    <path
       id="use605"
       style="display:inline;fill:none;stroke:url(#linearGradient2);stroke-width:1.32292"
       d="m 91.498281,128.44811 a 7.3093791,7.540626 0 0 1 -10.333815,-0.0124 7.3093791,7.540626 0 0 1 0.0056,-10.66075 7.3093791,7.540626 0 0 1 10.333821,-8.5e-4 7.3093791,7.540626 0 0 1 0.0072,10.66075" />
    <path
       id="use606"
       style="display:inline;fill:none;stroke:url(#linearGradient3);stroke-width:1.32292"
       d="m 96.688981,133.82447 a 14.677311,14.640156 0 0 1 -20.75041,-0.024 14.677311,14.640156 0 0 1 0.01119,-20.69789 14.677311,14.640156 0 0 1 20.750423,-0.002 14.677311,14.640156 0 0 1 0.01451,20.69788" />
    <path
       style="display:inline;fill:none;fill-opacity:1;fill-rule:nonzero;stroke:none;stroke-width:1.32292;stroke-dasharray:none"
       d="m 86.337367,115.56764 c 0.414943,1.45512 0.733766,1.08821 0.733766,1.9744 0,0.0756 0.05348,0.17342 0,0.2269 -0.02674,0.0267 -0.08671,-0.0267 -0.113445,0 -0.111895,0.11189 -0.03077,0.48455 -0.113448,0.56723 -0.02674,0.0267 -0.07563,0 -0.113446,0 -0.07563,0.15126 -0.118628,0.32387 -0.226893,0.45379 -0.236442,0.28373 -0.326456,0.15975 -0.567232,0.34033 -0.701625,0.52622 -0.0685,0.0236 -0.226894,0.34034 -0.03781,0.0756 -0.226893,0.0289 -0.226893,0.11345 0,0.21747 1.612844,-0.70091 0.325318,-0.31228"
       id="use607" />
    <path
       style="display:inline;fill:#00a9ff;fill-opacity:1;fill-rule:nonzero;stroke:none;stroke-width:1.32292;stroke-dasharray:none"
       d="m 86.339904,122.78474 -0.0026,-6.68794"
       id="use608" />
    <path
       style="display:inline;fill:url(#linearGradient5);fill-opacity:1;fill-rule:nonzero;stroke:#cccbca;stroke-width:1.32292;stroke-dasharray:none;stroke-opacity:1"
       d="M 86.337367,103.92597 V 119.2718"
       id="use609" />
    <path
       style="display:inline;fill:#cccbca;fill-opacity:1;fill-rule:nonzero;stroke:#cccbca;stroke-width:1.32292;stroke-dasharray:none;stroke-opacity:1"
       d="m 86.335123,125.76228 -0.04399,17.97839"
       id="use610" />
    <path
       style="display:inline;fill:#eeeeec;fill-opacity:1;fill-rule:nonzero;stroke:#cccbca;stroke-width:1.32292;stroke-dasharray:none;stroke-opacity:1"
       d="m 94.308162,123.01855 h 6.065548"
       id="use611" />
    <path
       style="display:inline;fill:#cccbca;fill-opacity:1;fill-rule:nonzero;stroke:#cccbca;stroke-width:1.32292;stroke-dasharray:none;stroke-opacity:1"
       d="m 78.399867,122.97597 h -6.35"
       id="use612" />
    <path
       id="use613"
       style="display:inline;fill:none;fill-opacity:1;stroke:url(#linearGradient4);stroke-width:1.32292;stroke-dasharray:none"
       d="m 87.429289,103.2888 a 20.258675,20.219881 0 0 0 -2.538346,0.015 20.258675,20.219881 0 0 0 -12.875182,5.86735 20.258675,20.219881 0 0 0 -2.488737,25.4987 3.2476051,3.3485836 0 0 0 -0.299724,0.26768 3.2476051,3.3485836 0 0 0 -0.0026,4.73408 3.2476051,3.3485836 0 0 0 4.591451,0.006 l 0.0057,-0.006 a 3.2476051,3.3485836 0 0 0 0.168465,-0.18965 20.258675,20.219881 0 0 0 26.651084,-1.69137 l 0.0357,-0.0351 a 20.258675,20.219881 0 0 0 2.74143,-25.1442 3.2476051,3.3485836 0 0 0 0.56018,-0.45062 l 0.006,-0.006 a 3.2476051,3.3485836 0 0 0 -0.003,-4.73408 3.2476051,3.3485836 0 0 0 -4.591453,0 3.2476051,3.3485836 0 0 0 -0.315227,0.38034 20.258675,20.219881 0 0 0 -11.645284,-4.51238 z" />
    <path
       style="fill:none;stroke-width:0.19545;stroke-linecap:round"
       d="M 71.534618,157.2946 C 57.854123,155.654 45.71297,151.3441 35.657766,144.55891 c -2.904812,-1.96014 -2.95871,-1.97817 -3.95853,-1.32387 -5.478831,3.58542 -11.52477,3.77917 -16.585796,0.53152 -6.8122795,-4.37143 -8.8206038,-14.53968 -4.146212,-20.99249 0.632862,-0.87364 1.150658,-1.75644 1.150658,-1.96178 0,-0.20534 -0.641761,-1.46834 -1.426136,-2.80667 C 7.3386719,112.28446 4.28824,104.68362 2.5748838,97.78061 1.2449845,92.422527 0.76362544,89.246452 0.41369697,83.520802 -1.7540105,48.052035 20.173301,15.589086 53.918104,4.308598 76.786009,-3.335872 102.31675,0.06552325 122.30314,13.419362 l 4.38777,2.931674 2.22795,-1.523394 c 12.27513,-8.393324 27.45105,5.272025 21.03785,18.943806 -0.51492,1.097723 -1.45496,2.600212 -2.08896,3.338863 l -1.15274,1.343002 2.4062,4.715941 c 3.86962,7.584112 6.52584,15.834602 7.87363,24.456368 0.98588,6.306621 0.88123,17.206926 -0.22706,23.649423 -2.78775,16.205215 -9.6896,30.188485 -20.48604,41.505035 -12.26485,12.85571 -26.73888,20.57659 -44.615795,23.79942 -3.384999,0.61024 -16.97907,1.09313 -20.131327,0.7151 z m 5.081694,-12.59139 v -8.13852 l -4.20217,-0.51959 c -2.311194,-0.28578 -4.55398,-0.55869 -4.983969,-0.60646 -0.42999,-0.0478 -1.045657,-0.17478 -1.368149,-0.28224 -0.322492,-0.10746 -2.539678,-0.81809 -4.927078,-1.57918 -8.925522,-2.8454 -17.010517,-7.78618 -23.486706,-14.35286 -3.114153,-3.15766 -4.421778,-4.60854 -4.421778,-4.90619 0,-0.10331 -0.79854,-1.28446 -1.774534,-2.62478 C 27.615776,106.42521 23.39915,96.594707 22.274658,90.297796 22.0251,88.90033 21.734381,87.493092 21.628615,87.1706 c -0.239249,-0.729497 -0.425374,-3.814746 -0.507011,-8.40434 -0.06338,-3.563155 0.48933,-8.970938 1.186028,-11.60426 0.209666,-0.792479 0.349534,-1.58405 0.310818,-1.759048 -0.03872,-0.174998 0.03674,-0.582034 0.167681,-0.904526 0.130941,-0.322492 0.694646,-1.993588 1.252679,-3.713546 5.467686,-16.85241 19.427387,-30.849419 36.427124,-36.524476 3.934224,-1.313371 10.667054,-2.758371 12.889134,-2.766266 3.478361,-0.01236 3.261244,0.54984 3.261244,-8.444594 V 5.0816942 h 2.345397 2.345398 v 7.9957278 7.995728 l 1.270423,0.216977 c 0.698733,0.119337 1.622233,0.198556 2.052223,0.176042 1.140289,-0.05971 7.00974,1.082073 10.065663,1.958065 1.451215,0.415996 2.638572,0.676765 2.638572,0.579486 0,-0.09728 0.395786,0.07715 0.879524,0.387609 0.483738,0.310464 1.231334,0.622352 1.661323,0.693086 0.429985,0.07073 0.885575,0.269347 1.012425,0.441363 0.12684,0.172016 0.61057,0.341378 1.07497,0.376359 0.46439,0.03498 0.84435,0.212456 0.84435,0.394388 0,0.181931 0.17591,0.222069 0.3909,0.0892 0.215,-0.132874 0.3909,-0.08202 0.3909,0.113012 0,0.348008 2.64207,1.699222 3.23252,1.653184 0.16542,-0.0129 0.6758,0.325943 1.13417,0.752981 0.45837,0.427039 0.98267,0.684183 1.1651,0.571432 0.18244,-0.112751 0.3317,-0.04209 0.3317,0.157022 0,0.199113 0.70362,0.827657 1.5636,1.396764 0.85998,0.569107 1.5636,0.924805 1.5636,0.790439 0,-0.134365 0.34596,0.170972 0.76879,0.678528 0.42284,0.507556 0.77465,0.767179 0.7818,0.576939 0.007,-0.19024 0.38487,0.126857 0.83937,0.70466 0.4545,0.577802 0.89228,0.984633 0.97285,0.904067 0.16713,-0.167133 7.19049,6.782396 7.19335,7.117733 10e-4,0.120573 0.61669,0.888652 1.36815,1.706848 0.75145,0.818195 1.36628,1.659263 1.36628,1.869043 0,0.209776 0.24798,0.476573 0.55107,0.592877 0.30309,0.116308 0.64809,0.598026 0.76667,1.070486 0.11858,0.472461 0.53254,1.207325 0.91991,1.633038 0.38737,0.425709 1.03656,1.521616 1.44265,2.435343 0.40608,0.913728 0.8979,1.661323 1.09293,1.661323 0.19503,0 0.24588,0.175905 0.11301,0.3909 -0.13287,0.214995 -0.026,0.390899 0.23753,0.390899 0.26352,0 0.36938,0.109734 0.23527,0.243851 -0.13412,0.134118 0.13408,0.969666 0.59599,1.856773 0.46192,0.887108 0.89507,1.934046 0.96256,2.326537 0.0675,0.392486 0.33086,1.096106 0.58528,1.563598 0.25441,0.467488 0.4919,1.113841 0.52774,1.436333 0.0358,0.322492 0.36285,1.58369 0.72669,2.802664 1.35189,4.529224 2.0481,10.306973 1.93815,16.084234 -0.058,3.04938 -0.1824,5.984086 -0.27638,6.521573 -0.094,0.537487 -0.27366,1.592915 -0.39929,2.345397 -0.12564,0.752482 -0.40558,1.972166 -0.62208,2.710408 -0.21651,0.738241 -0.31023,1.425677 -0.20827,1.527631 0.10195,0.101955 0.0223,0.381847 -0.17698,0.62198 -0.1993,0.240137 -0.43458,0.871987 -0.52286,1.404115 -0.0883,0.532132 -0.30303,1.319317 -0.47723,1.749307 -0.1742,0.429989 -0.83082,2.101085 -1.45916,3.713546 -0.62835,1.61247 -1.8202,4.16308 -2.64856,5.66805 -0.82837,1.50496 -1.52259,2.86404 -1.54272,3.02016 -0.0201,0.15613 -0.4736,0.75539 -1.0077,1.3317 -0.5341,0.5763 -0.90312,1.11579 -0.82004,1.19886 0.0831,0.0831 -0.39892,0.77224 -1.0711,1.53147 -0.67217,0.75924 -1.17549,1.4583 -1.11849,1.55348 0.057,0.0952 -0.52059,0.72114 -1.28355,1.39103 -0.76296,0.66988 -1.2993,1.30586 -1.19188,1.4133 0.10743,0.10743 -0.25449,0.54915 -0.80427,0.9816 l -0.99959,0.78628 -1.58038,-1.58037 -1.58038,-1.58038 2.45567,-2.85319 c 1.35061,-1.56925 3.21891,-4.03305 4.15178,-5.47511 2.21493,-3.42393 5.29396,-9.768713 5.04962,-10.405454 -0.10542,-0.274736 -0.0288,-0.499522 0.1704,-0.499522 0.47918,0 2.07379,-5.390861 1.80319,-6.09602 -0.11592,-0.302099 -0.0645,-0.549273 0.11423,-0.549273 0.27203,0 1.0842,-4.26014 1.19236,-6.254393 0.16795,-3.096678 0.26998,-7.64843 0.14239,-6.352117 l -0.16353,1.661323 h -11.28748 -11.28748 l -0.18147,-0.879524 c -0.0998,-0.483738 -0.1954,0.08795 -0.21241,1.270423 -0.0366,2.544444 -0.18633,3.463617 -0.9819,6.027949 -0.32821,1.057931 -0.51588,2.054357 -0.41704,2.214286 0.0988,0.159932 0.0467,0.349781 -0.11589,0.421894 -0.27625,0.122523 -3.28086,6.078402 -3.17269,6.28905 0.0272,0.05305 -0.8448,1.063931 -1.93786,2.246402 l -1.9874,2.149947 -1.56597,-1.528773 -1.565975,-1.528773 1.557008,-1.955518 c 3.629717,-4.558729 5.575677,-10.312637 5.575677,-16.486411 0,-4.741072 -0.72894,-7.806389 -2.92817,-12.313336 C 97.791075,58.332587 89.90547,52.478812 82.994483,51.779512 l -1.687376,-0.170741 v 5.663028 c 0,5.402428 0.03598,5.663029 0.781799,5.663029 0.429989,0 0.825775,-0.02137 0.879524,-0.04748 0.05375,-0.02611 1.028965,0.501602 2.167151,1.172699 1.138182,0.671096 2.132044,1.220177 2.208582,1.220177 0.345594,0 2.815282,2.724629 3.313488,3.655536 0.304729,0.569392 0.710616,1.035259 0.901969,1.035259 0.191353,0 0.239199,0.175904 0.106325,0.390899 -0.132875,0.214995 -0.0553,0.3909 0.172379,0.3909 0.227683,0 0.380462,0.131928 0.339504,0.293174 -0.09074,0.35724 0.4802,2.899279 0.755624,3.364348 0.212087,0.358107 0.171644,4.619721 -0.05617,5.919517 -0.07537,0.429989 -0.350113,1.348142 -0.61055,2.040335 -0.260441,0.692197 -0.49756,1.395816 -0.526933,1.563598 -0.02937,0.167786 -0.268446,0.568919 -0.531279,0.891412 -0.262833,0.322492 -0.826151,1.026111 -1.251821,1.563598 l -0.773942,0.977249 -1.369442,-1.320416 -1.369438,-1.320416 0.908845,-1.415881 c 1.422569,-2.216201 1.888748,-4.189392 1.679781,-7.109978 -0.317871,-4.442659 -3.043551,-7.957444 -7.112268,-9.171313 -2.421377,-0.722402 -3.494857,-0.721964 -5.934121,0.0024 -6.87488,2.041621 -9.518592,10.977671 -5.00027,16.901496 0.544847,0.71433 1.159431,1.194464 1.36574,1.066956 0.206305,-0.127503 0.326769,-0.02142 0.267696,0.23574 -0.05908,0.257157 0.68416,0.898584 1.651637,1.425388 1.551644,0.844894 2.15429,0.942983 5.111203,0.831916 2.902097,-0.109006 3.575089,-0.273528 5.012646,-1.225411 l 1.66049,-1.099495 1.339472,1.021667 c 0.736709,0.561914 1.333878,1.14464 1.327041,1.294944 -0.01991,0.437698 -1.179179,1.856441 -1.341227,1.641431 -0.08101,-0.107498 -0.645133,0.237409 -1.253595,0.76646 -0.608463,0.529051 -1.194245,0.922957 -1.301742,0.875349 -0.107498,-0.0476 -0.723165,0.116285 -1.368149,0.364205 -0.644984,0.24792 -1.39258,0.417989 -1.661323,0.377937 -0.373067,-0.0556 -0.488624,1.36415 -0.488624,6.003252 0,4.60335 0.118434,6.07468 0.488624,6.0703 0.268743,-0.003 1.588659,-0.26514 2.933142,-0.58214 3.12199,-0.73609 7.282025,-2.83084 9.970288,-5.020464 l 2.104056,-1.713774 1.777729,1.679652 c 1.261531,1.191935 1.656412,1.80098 1.359904,2.097486 -0.229802,0.2298 -0.602524,0.42002 -0.828269,0.4227 -0.225744,0.003 -1.15804,0.69924 -2.071767,1.54791 -0.913728,0.84867 -1.666917,1.41817 -1.673754,1.26555 -0.0068,-0.15262 -0.226722,0.004 -0.488625,0.34765 -0.261906,0.34383 -0.564146,0.63258 -0.671643,0.64168 -0.503686,0.0426 -4.137551,1.90544 -4.391635,2.25128 -0.157955,0.21499 -0.289884,0.23743 -0.293175,0.0499 -0.0033,-0.18757 -0.269842,-0.12206 -0.592334,0.14559 -0.322492,0.26764 -0.586349,0.35559 -0.586349,0.19545 0,-0.16015 -0.219881,-0.1087 -0.488625,0.11434 -0.268743,0.22304 -0.62316,0.40503 -0.787592,0.40442 -0.164432,-6e-4 -1.527694,0.20616 -3.029472,0.45946 l -2.730503,0.46056 v 11.62829 11.62829 l 1.734597,0.0656 c 0.954029,0.0361 1.84571,-0.11417 1.981509,-0.33389 0.135802,-0.21973 0.41768,-0.29397 0.626401,-0.16498 0.532131,0.32888 5.820881,-0.6608 5.820881,-1.08925 0,-0.19326 0.180177,-0.24001 0.400394,-0.10391 0.50505,0.31214 5.91582,-1.46889 9.751329,-3.20979 3.51185,-1.59398 9.54945,-5.57154 12.55839,-8.27345 l 2.18789,-1.96463 1.59657,1.6393 1.59657,1.63931 -0.99334,1.1727 c -0.54633,0.64499 -0.86984,0.90884 -0.71891,0.58635 0.15094,-0.32249 -0.44543,0.15443 -1.32525,1.05984 -0.87982,0.9054 -1.59967,1.56308 -1.59967,1.46152 0,-0.10157 -1.18736,0.66652 -2.63857,1.70686 -1.45122,1.04034 -3.3422,2.30832 -4.20217,2.81774 -0.85998,0.50942 -1.65155,1.02345 -1.75905,1.1423 -0.1075,0.11884 -0.45931,0.27325 -0.7818,0.34312 -0.32249,0.0699 -0.64535,0.29085 -0.71746,0.49106 -0.0721,0.20021 -0.292,0.26459 -0.48863,0.14306 -0.19663,-0.12152 -0.35751,-0.0347 -0.35751,0.19302 0,0.22768 -0.13193,0.38511 -0.29317,0.34985 -0.50688,-0.11087 -2.44313,0.52721 -2.44313,0.80511 0,0.14594 -0.37995,0.29396 -0.84435,0.32894 -0.464392,0.035 -0.989409,0.2923 -1.166709,0.57181 -0.1773,0.27951 -0.325057,0.35474 -0.328348,0.16717 -0.0033,-0.18757 -0.269842,-0.12206 -0.592334,0.14559 -0.322492,0.26764 -0.586349,0.35559 -0.586349,0.19545 0,-0.16015 -0.263857,-0.0722 -0.58635,0.19545 -0.322492,0.26764 -0.586349,0.38149 -0.586349,0.25299 0,-0.12851 -0.483738,-0.0465 -1.074974,0.18229 -0.591235,0.22877 -1.382807,0.48827 -1.759048,0.57668 -0.37624,0.0884 -1.07986,0.25716 -1.563598,0.37502 -0.483738,0.11785 -1.319286,0.28753 -1.856773,0.37706 -0.537487,0.0895 -1.417011,0.25721 -1.954497,0.37263 -0.537487,0.1154 -2.296402,0.31206 -3.908699,0.43701 -1.6123,0.12494 -3.019539,0.31535 -3.127196,0.42311 -0.107662,0.10777 -0.20851,3.81102 -0.224111,8.22944 l -0.02837,8.03349 3.546463,-0.24933 c 5.462016,-0.38399 16.009792,-2.47831 16.634742,-3.30293 0.11127,-0.14681 0.64207,-0.31609 1.17955,-0.37618 0.53749,-0.0601 1.03625,-0.28106 1.10836,-0.49106 0.0721,-0.20999 0.28688,-0.28554 0.47726,-0.16788 0.46326,0.28631 6.23237,-2.13339 6.23237,-2.614 0,-0.20763 0.1749,-0.2694 0.38867,-0.13729 0.51486,0.3182 5.95275,-2.67393 10.44144,-5.74529 14.06634,-9.62476 24.49798,-24.1074 29.20155,-40.541601 0.83002,-2.900091 2.03207,-8.769155 2.16845,-10.587612 0.0242,-0.322492 0.23893,-2.741468 0.4772,-5.375502 0.41981,-4.640767 0.38095,-5.627949 -0.6271,-15.928523 -0.12625,-1.289969 -0.40528,-2.404396 -0.62008,-2.476509 -0.2148,-0.07211 -0.2904,-0.293148 -0.16801,-0.491193 0.32856,-0.531612 -1.2696,-6.652567 -2.84836,-10.909233 -1.55014,-4.17949 -4.82058,-10.841384 -6.90839,-14.072383 l -1.38925,-2.149948 0.8711,-0.68874 c 3.1303,-2.475 3.81686,-3.197274 4.62867,-4.869443 0.69831,-1.438404 0.9008,-2.499217 0.87907,-4.605205 -0.0436,-4.225586 -1.62877,-7.016403 -5.16647,-9.096081 -1.5188,-0.892849 -2.26284,-1.06541 -4.55187,-1.055698 -3.40523,0.01445 -5.26974,0.914571 -7.73722,3.735267 -0.99477,1.137175 -1.95014,1.899126 -2.193,1.749028 -0.23668,-0.146278 -1.92271,-1.391537 -3.74672,-2.767242 -5.76283,-4.346432 -17.11678,-10.4228103 -18.21137,-9.7463153 -0.19849,0.1226773 -0.3609,0.041884 -0.3609,-0.1795405 0,-0.4898296 -7.650562,-2.9203621 -8.174039,-2.5968368 C 96.38259,7.3364595 96.097409,7.2490778 95.953311,7.0159191 95.80921,6.7827604 95.45088,6.6842565 95.157018,6.7970208 94.863159,6.9097856 94.509289,6.8185007 94.370645,6.5941658 94.231997,6.3698309 93.786778,6.2730469 93.381267,6.3790906 92.975755,6.4851342 92.557845,6.4325398 92.452579,6.2622143 92.066969,5.6382867 84.071275,4.9119472 77.98446,4.9479111 52.290903,5.0997225 28.692714,18.60886 15.284797,40.841275 8.3651863,52.315072 4.9808413,64.816802 4.9652124,78.961709 4.9490424,93.596449 8.7438221,106.51748 16.723768,118.99898 l 1.730291,2.70636 -1.621486,1.3469 c -2.460024,2.04343 -3.689609,4.74559 -3.683334,8.09456 0.0059,3.13629 0.625962,4.85716 2.532723,7.02884 3.82289,4.35403 10.189852,4.40711 14.3879,0.11996 l 1.922001,-1.9628 3.255871,2.35851 c 6.84902,4.96133 13.530107,8.31708 21.469313,10.78352 6.31418,1.96159 12.974823,3.19965 17.847042,3.31733 l 2.052223,0.0496 z m -0.19545,-24.7563 c 0,-10.08097 -0.07964,-11.6739 -0.586349,-11.72777 -2.218437,-0.23584 -3.943047,-0.54817 -4.690795,-0.84951 -2.016408,-0.81258 -5.103244,-1.86706 -5.321949,-1.818 -0.142275,0.0319 -0.366304,-0.10661 -0.497841,-0.30783 -0.250133,-0.38265 -3.080785,-2.22991 -3.757249,-2.45195 -0.214994,-0.0706 -0.711499,-0.53589 -1.103345,-1.03404 -0.391845,-0.49815 -0.900515,-0.90573 -1.13038,-0.90573 -0.492623,0 -1.9975,-1.611987 -3.607029,-3.863764 -0.632476,-0.884852 -1.292119,-1.608826 -1.465874,-1.608826 -0.173751,0 -0.315913,-0.263857 -0.315913,-0.586349 0,-0.322492 -0.175905,-0.586349 -0.3909,-0.586349 -0.214994,0 -0.354733,-0.131929 -0.31053,-0.293175 0.0442,-0.161246 -0.236537,-0.888784 -0.623872,-1.616749 -0.970998,-1.824922 -2.625379,-6.247915 -2.867815,-7.667115 -0.110179,-0.644984 -0.311207,-2.052223 -0.446728,-3.127197 L 49.057894,79.548059 37.48772,79.444607 25.917546,79.341155 l 0.07669,2.448849 c 0.228628,7.299999 1.581143,12.627162 5.159268,20.320856 0.771928,1.6598 1.55849,2.92204 1.747914,2.80497 0.189425,-0.11708 0.3052,-0.0679 0.257277,0.10937 -0.152129,0.5626 0.502498,2.10033 0.812554,1.9087 0.163684,-0.10116 0.297607,0.0317 0.297607,0.29516 0,0.8348 2.162599,3.78447 2.583796,3.52415 0.223393,-0.13806 0.286872,-0.0606 0.142171,0.17356 -0.42037,0.68017 6.449736,7.8587 7.277138,7.60383 0.191783,-0.0591 0.252888,0.0476 0.135791,0.23708 -0.415679,0.67258 7.310591,6.14308 8.039736,5.69245 0.293573,-0.18144 0.335982,-0.0989 0.124767,0.24286 -0.23427,0.37906 -0.140313,0.44878 0.350805,0.26032 0.368928,-0.14157 0.577875,-0.10708 0.464327,0.0766 -0.304898,0.49333 6.138389,3.37408 10.159592,4.54228 3.888454,1.12964 8.928314,2.03514 11.31028,2.0321 l 1.563598,-0.002 z m 0.01353,-22.410029 c -0.0085,-3.80583 -0.158592,-6.029427 -0.404432,-5.992006 -0.214995,0.03272 -1.094519,-0.235986 -1.954498,-0.597134 -0.859979,-0.361144 -1.711546,-0.643413 -1.892372,-0.627257 -0.180822,0.01616 -0.571015,-0.290176 -0.86709,-0.680732 -0.296075,-0.390555 -0.543913,-0.598795 -0.550754,-0.462751 -0.0068,0.136041 -0.764435,-0.479626 -1.683549,-1.368148 -0.919119,-0.888527 -1.62882,-1.720791 -1.577116,-1.849479 0.0517,-0.128684 -0.24113,-0.593698 -0.650738,-1.033362 -0.409608,-0.439661 -0.638065,-0.906063 -0.507685,-1.036447 0.130385,-0.130385 0.0025,-0.237061 -0.284137,-0.237061 -0.286658,0 -0.417344,-0.103854 -0.290407,-0.230791 0.126933,-0.126933 -0.0074,-0.906023 -0.298624,-1.73131 -0.700758,-1.986153 -0.804506,-6.397931 -0.202064,-8.592187 0.265628,-0.967476 0.495747,-1.847 0.511379,-1.954498 0.01563,-0.107497 0.262485,-0.429512 0.548561,-0.715588 0.286076,-0.286076 0.431581,-0.663431 0.323341,-0.838566 -0.108237,-0.175131 0.09123,-0.428949 0.443256,-0.564033 0.352029,-0.135087 0.539688,-0.345977 0.417024,-0.468645 -0.71664,-0.71664 6.51298,-5.600895 8.320023,-5.620917 0.489183,-0.0054 0.602747,-0.941306 0.685298,-5.647662 0.113767,-6.485864 0.432014,-6.087561 -4.007944,-5.016211 -4.059496,0.979548 -7.476861,3.042262 -11.150727,6.730556 -3.617892,3.632102 -5.659529,7.092325 -6.81764,11.554717 -0.745074,2.870899 -1.212914,8.465915 -0.789761,9.444911 0.170803,0.39516 0.274927,1.011746 0.231389,1.370189 -0.159343,1.311742 1.239253,5.679763 2.750005,8.588681 3.392063,6.531333 10.720702,12.28362 16.574904,13.00972 0.788276,0.0978 1.53217,0.27671 1.653102,0.39764 0.120933,0.12093 0.504479,0.21987 0.852333,0.21987 0.556027,0 0.630822,-0.73133 0.618923,-6.051499 z M 61.52954,96.063565 60.78488,95.184041 61.664404,95.9287 c 0.826534,0.699797 1.057477,1.014389 0.74466,1.014389 -0.07418,0 -0.469963,-0.395786 -0.879524,-0.879524 z m 58.85897,-21.010851 h 11.278 l -0.14652,-2.801304 c -0.0806,-1.540719 -0.28548,-2.903981 -0.45531,-3.029471 -0.16983,-0.125495 -0.34855,-0.896954 -0.39717,-1.714364 -0.11453,-1.925607 -2.4518,-8.898285 -4.04488,-12.066874 -8.00137,-15.91451 -23.07348,-26.700286 -40.624729,-29.071539 -2.257445,-0.304991 -4.236374,-0.557963 -4.39762,-0.56216 -0.161246,-0.0042 -0.293174,4.754386 -0.293174,10.574631 v 10.582263 l 0.879524,-0.0861 c 0.483738,-0.04735 1.143381,0.01433 1.465873,0.137061 0.467551,0.177945 2.675938,0.729227 5.179419,1.292943 0.161246,0.03631 0.381127,0.088 0.488624,0.114878 0.107498,0.02687 0.307713,0.03384 0.444922,0.01548 0.137206,-0.01837 0.357087,0.13391 0.488625,0.33839 0.131534,0.204475 1.030724,0.771284 1.9982,1.259576 0.967476,0.488292 2.462667,1.369641 3.322646,1.958551 0.859979,0.588914 1.683952,1.104127 1.831056,1.144925 0.5235,0.14518 3.740684,3.555298 4.810334,5.098804 0.59811,0.863075 1.23946,1.569227 1.42521,1.569227 0.18576,0 0.33774,0.251294 0.33774,0.558428 0,0.307137 0.21988,0.790875 0.48863,1.074973 0.47051,0.497408 1.65371,2.837431 1.84239,3.643743 0.0503,0.214995 0.28777,0.742709 0.5277,1.172699 0.23992,0.429989 0.46445,0.913728 0.49894,1.074974 0.0345,0.161246 0.0994,0.337151 0.14415,0.390899 0.0448,0.05375 0.1363,0.449535 0.20336,0.879524 0.0671,0.42999 0.31626,1.729309 0.55377,2.887376 0.23752,1.158067 0.46001,3.005067 0.49441,4.104445 0.0442,1.412891 0.10878,1.626439 0.22022,0.728445 l 0.15766,-1.270423 z M 49.684713,71.534618 c 0.571272,-3.337493 0.520053,-3.111924 0.902923,-3.976195 0.159237,-0.359452 0.329548,-0.887166 0.378469,-1.172699 0.04892,-0.285532 0.391697,-1.09084 0.76173,-1.789573 0.37003,-0.698733 0.536334,-1.273117 0.369568,-1.276408 -0.166765,-0.0033 -0.127308,-0.13522 0.08769,-0.293175 0.214995,-0.157955 1.235594,-1.548502 2.268003,-3.090108 1.848818,-2.760685 5.136717,-6.383222 5.793562,-6.383222 0.184883,0 0.555859,-0.351809 0.824391,-0.781799 0.268532,-0.429989 0.709788,-0.781799 0.980564,-0.781799 0.270776,0 0.492318,-0.175905 0.492318,-0.390899 0,-0.214995 0.263857,-0.3909 0.586349,-0.3909 0.322493,0 0.58635,-0.175905 0.58635,-0.390899 0,-0.214995 0.131928,-0.3634 0.293174,-0.329791 0.161247,0.03361 1.348604,-0.424024 2.638572,-1.016964 2.40474,-1.10535 7.496836,-2.562241 8.955494,-2.562241 0.80861,0 0.816995,-0.108623 0.816995,-10.583605 V 25.740735 l -1.172698,0.266862 c -0.644985,0.146773 -1.751496,0.24193 -2.458915,0.211458 -0.707419,-0.03047 -1.474586,0.06101 -1.704815,0.203304 -0.230228,0.142289 -1.112019,0.310425 -1.959536,0.373635 -0.847517,0.06321 -1.767632,0.303064 -2.044698,0.533009 -0.277069,0.229945 -0.602654,0.319189 -0.723524,0.198319 -0.323809,-0.323811 -5.767246,1.369866 -5.767246,1.794429 0,0.199143 -0.224786,0.27582 -0.499522,0.170393 -0.636733,-0.244337 -6.987205,2.837397 -10.385017,5.039604 -3.443755,2.231984 -7.947848,6.084482 -7.659344,6.551291 0.126342,0.204424 -0.0032,0.323348 -0.287964,0.264275 -0.284724,-0.05908 -0.473704,0.11247 -0.419955,0.381213 0.05375,0.268744 -0.122157,0.444648 -0.3909,0.3909 -0.268743,-0.05375 -0.44029,0.135231 -0.381213,0.419955 0.05907,0.284723 -0.0587,0.415018 -0.261723,0.289543 -0.450559,-0.278461 -2.824006,2.514723 -2.534656,2.982904 0.113427,0.183527 0.0294,0.285352 -0.186731,0.22628 -0.543129,-0.148456 -2.432135,2.458433 -2.132611,2.943075 0.133573,0.216124 0.07139,0.286982 -0.138179,0.157458 -0.411781,-0.254495 -2.997252,3.73218 -2.997252,4.621621 0,0.297212 -0.1176,0.467703 -0.261334,0.378871 -0.369658,-0.228461 -1.623421,2.517972 -1.350823,2.959047 0.123749,0.200231 0.06695,0.364053 -0.126226,0.364053 -0.477096,0 -1.323638,1.923781 -1.04496,2.374691 0.122917,0.198882 0.06006,0.361606 -0.139682,0.361606 -0.329693,0 -1.44202,3.166036 -1.44202,4.104445 0,0.214995 -0.137641,0.492764 -0.305868,0.617266 -0.168227,0.124497 -0.361447,0.845754 -0.429377,1.602786 -0.06793,0.757031 -0.220995,1.534691 -0.340144,1.728131 -0.119149,0.193441 -0.333032,1.231236 -0.475296,2.30621 -0.142263,1.074974 -0.34815,2.433123 -0.457526,3.018112 l -0.198865,1.063614 11.560117,-0.08637 c 10.036401,-0.07498 11.566089,-0.0091 11.605445,0.499984 0.05461,0.706347 0.05112,0.722148 0.776909,-3.518096 z"
       id="path5"
       transform="matrix(0.26458333,0,0,0.26458333,65.453727,102.59477)" />
    <path
       style="fill:#eeeeec;stroke:#eeeeec;stroke-width:0.423307;stroke-linecap:round;stroke-miterlimit:0;stroke-dasharray:none;stroke-opacity:1;paint-order:markers stroke fill"
       d="m 75.925004,157.63045 c -11.862867,-0.61514 -22.472173,-3.36779 -32.584104,-8.45414 -2.606897,-1.31128 -7.517094,-4.23525 -9.516351,-5.66689 l -1.28359,-0.91916 -1.06898,0.7847 c -1.470473,1.07943 -4.061449,2.23805 -5.738912,2.56631 -1.888071,0.36947 -5.354656,0.16445 -7.198434,-0.42574 -3.151594,-1.00881 -6.398742,-3.62291 -8.100659,-6.52139 -1.8257168,-3.10933 -2.5777249,-7.34687 -1.8796119,-10.59156 0.5965305,-2.77255 1.4104085,-4.4944 3.3809979,-7.15286 0.311658,-0.42044 0.252588,-0.59178 -0.808383,-2.34474 C 9.4737011,116.1734 6.2303538,109.41546 5.0594574,106.26251 -1.9216232,87.464119 -1.4847629,66.807449 6.2862163,48.255981 14.983858,27.49231 32.462392,11.317021 53.929084,4.1654858 58.82069,2.5358679 64.909233,1.1951015 70.453937,0.52652429 74.192594,0.07571925 83.989186,0.13731285 87.872026,0.63603613 101.74075,2.4173746 114.27381,7.3085942 125.04645,15.143931 l 1.66833,1.213432 1.19284,-0.971679 c 4.07472,-3.319247 9.75045,-4.116236 14.63761,-2.05542 4.00899,1.690515 7.37883,5.628115 8.5628,10.005509 0.60192,2.225382 0.54759,5.906041 -0.11856,8.033486 -0.83831,2.677228 -1.8544,4.451597 -3.6672,6.403902 l -0.6536,0.703891 0.88932,1.529197 c 5.11355,8.792758 8.65242,19.745671 9.90976,30.670997 0.4373,3.799893 0.37402,13.170987 -0.11612,17.193456 -1.20339,9.876012 -4.07339,19.169648 -8.54758,27.678798 -11.38649,21.65519 -32.4826,36.91918 -56.639682,40.98138 -5.003935,0.84145 -12.035468,1.31756 -16.239364,1.09957 z m 0.446617,-12.91026 v -8.1347 l -1.228198,-0.12772 c -0.675509,-0.0703 -1.80601,-0.1832 -2.512225,-0.251 -2.588053,-0.24848 -6.720541,-1.06623 -9.720932,-1.92362 C 42.597956,128.47871 27.122785,112.0977 22.440948,91.444968 21.417669,86.931034 21.125685,84.088692 21.13338,78.716364 c 0.0058,-4.014264 0.104431,-5.653007 0.490817,-8.150772 2.617174,-16.918523 11.662747,-30.895977 26.09139,-40.317095 7.155907,-4.672418 17.076915,-8.109958 25.418056,-8.807127 0.859739,-0.07186 1.99024,-0.183616 2.512225,-0.248351 l 0.949062,-0.1177 V 13.049884 5.0244488 h -1.508703 c -1.948506,0 -6.642377,0.5428696 -9.768393,1.1297631 C 38.574741,11.175092 16.806858,30.257389 8.5266412,55.938863 6.2530127,62.990628 5.2141751,69.050039 4.9853242,76.59493 4.5231698,91.83152 8.6405743,106.51748 16.910421,119.12939 l 1.680062,2.56217 -0.976987,0.78409 c -1.698115,1.36283 -2.653415,2.51827 -3.502481,4.23623 -0.818184,1.65549 -0.824139,1.68787 -0.824139,4.48206 0,2.79799 0.0049,2.82439 0.830353,4.49463 1.888509,3.82114 5.652029,6.05904 9.576256,5.69432 2.85041,-0.26492 4.845241,-1.34369 6.900524,-3.73169 l 1.297753,-1.50783 2.800516,2.08245 c 10.527129,7.82792 23.118299,12.78419 35.984968,14.16478 3.251687,0.34891 3.696166,0.38905 4.745313,0.42856 l 0.949062,0.0357 z m 11.745085,7.56938 c 15.778284,-1.89378 30.694634,-8.97195 42.184344,-20.0175 23.33103,-22.42912 29.42327,-57.301059 15.05136,-86.153867 -1.07197,-2.152059 -2.66706,-5.054276 -3.54465,-6.449376 -0.87758,-1.395097 -1.56468,-2.561464 -1.52689,-2.591923 0.0378,-0.03046 0.79883,-0.532065 1.69117,-1.114678 3.19259,-2.084456 4.74186,-4.924205 4.74186,-8.691608 0,-3.233778 -1.0231,-5.667966 -3.23002,-7.684973 -3.01192,-2.752727 -6.91232,-3.393747 -10.54115,-1.732411 -2.02086,0.925177 -3.18023,2.057589 -5.35058,5.22612 -0.0296,0.0432 -1.0401,-0.720133 -2.24556,-1.696294 C 115.84298,13.687251 104.12361,8.3033971 92.15576,6.1352658 89.118402,5.5850089 84.31477,5.0295217 82.568442,5.0265984 l -1.284026,-0.00215 v 8.0194896 8.01949 l 0.837408,0.120445 c 0.460574,0.06625 1.64132,0.184 2.623879,0.261677 4.226573,0.334138 10.40003,1.80657 15.073346,3.595146 3.286601,1.25785 8.082591,3.769779 11.277101,5.906447 14.36613,9.608888 23.6155,25.029417 25.35834,42.277405 0.33929,3.357683 0.15534,11.00434 -0.3416,14.200861 -1.46858,9.446339 -5.26097,18.457121 -10.94922,26.015481 -1.01675,1.35102 -2.60501,3.26031 -3.52946,4.24287 l -1.68084,1.78647 -1.68138,-1.65761 -1.68138,-1.65761 1.18291,-1.27768 c 8.49176,-9.17212 13.15052,-20.136002 14.10821,-33.202124 l 0.1514,-2.065606 h -11.41756 -11.41755 v -2.456398 -2.456397 h 11.2771 11.27709 V 74.22302 c 0,-0.995424 -0.71566,-5.323859 -1.26931,-7.676987 -1.70764,-7.257906 -5.34902,-14.732577 -10.11725,-20.767722 -2.11822,-2.681039 -6.48975,-6.907826 -9.38116,-9.070557 C 104.46082,31.82815 97.908883,28.830305 89.881806,27.052197 87.996249,26.634523 83.38914,26.015479 82.166213,26.015479 h -0.881797 l 3.73e-4,10.328034 3.73e-4,10.328033 2.288542,0.374478 c 6.283875,1.028239 11.645764,3.809919 16.252379,8.431532 2.536917,2.545176 4.291587,4.988304 5.864477,8.165462 4.68295,9.459284 4.24311,20.824221 -1.15851,29.934241 -1.23758,2.087236 -3.65884,5.226789 -4.15473,5.387292 -0.12282,0.03975 -0.966846,-0.608085 -1.875617,-1.439641 l -1.652306,-1.511919 1.543729,-1.924049 c 2.666194,-3.323052 4.508114,-7.427663 5.345114,-11.911291 0.55175,-2.955608 0.35559,-8.372891 -0.40835,-11.277096 -1.27247,-4.837441 -3.576536,-8.827613 -7.092047,-12.281986 -3.875159,-3.807768 -8.837034,-6.268424 -14.119824,-7.002195 l -0.841216,-0.116844 0.05964,5.602417 0.05963,5.602419 1.339853,0.373783 c 3.814475,1.064138 7.13783,3.852665 8.914875,7.480203 1.075377,2.195202 1.51384,4.094866 1.52216,6.59485 0.01125,3.380731 -0.982306,6.403667 -2.970014,9.036364 l -0.94519,1.251896 -0.581211,-0.50535 C 88.356882,86.658171 87.67301,86.035363 87.156832,85.552098 l -0.938507,-0.878667 0.560085,-0.665623 c 2.894672,-3.440124 3.099152,-9.011367 0.474458,-12.92711 -3.956133,-5.902101 -12.670251,-5.902101 -16.626384,0 -3.67247,5.478905 -1.707444,12.979036 4.124247,15.741453 1.437182,0.680779 1.637177,0.714912 4.188945,0.714912 2.534118,0 2.759142,-0.03764 4.141792,-0.692847 0.804146,-0.381065 1.81676,-1.004255 2.250254,-1.384867 l 0.788171,-0.692023 1.434339,1.457403 1.434342,1.457402 -0.893236,0.785067 c -1.261985,1.109159 -3.753075,2.439647 -5.405002,2.886803 l -1.405917,0.380563 v 5.909895 5.909901 l 1.060717,-0.15292 c 4.698817,-0.67739 9.625814,-2.98196 13.00966,-6.085165 l 1.230119,-1.1281 1.752304,1.600291 1.752301,1.600292 -1.478298,1.382882 c -3.925558,3.67217 -9.824113,6.49044 -15.212106,7.26819 l -2.003043,0.28914 -0.05782,11.65579 -0.05782,11.6558 h 1.110859 c 1.605852,0 5.780373,-0.61275 8.495405,-1.24699 9.076443,-2.12027 17.361963,-6.48577 24.022913,-12.65727 l 1.35706,-1.25734 1.64876,1.65983 1.64876,1.65984 -0.77274,0.80882 c -1.10303,1.15454 -4.92835,4.26907 -7.02538,5.72 -8.14804,5.6376 -17.662089,9.06261 -27.791816,10.00491 -1.406856,0.13087 -2.574136,0.25925 -2.593957,0.2853 -0.01982,0.026 -0.105849,3.70429 -0.191171,8.17388 l -0.155134,8.12654 2.190818,-0.15216 c 1.204952,-0.0837 3.406304,-0.29804 4.891896,-0.47635 z M 76.371621,119.96621 V 108.29187 L 74.31015,108.01111 C 65.198058,106.77011 56.382399,100.13885 52.138553,91.333313 50.39306,87.711599 49.743682,85.398631 48.988121,80.112044 L 48.884396,79.386291 H 37.394112 25.903825 v 1.627477 c 0,4.67307 1.466371,11.80619 3.485659,16.955893 6.266979,15.982399 19.781418,27.936269 36.328189,32.133219 3.042203,0.77163 7.467693,1.48853 9.369923,1.51788 l 1.284025,0.0198 z m 0.171122,-22.401948 0.05947,-5.827727 -1.409556,-0.381549 C 70.339521,90.041304 66.403714,85.90813 65.071353,80.726144 c -0.487966,-1.897864 -0.48302,-5.247267 0.01055,-7.145883 1.32072,-5.080388 5.221358,-9.151835 10.061519,-10.502112 l 1.339853,-0.373783 0.05965,-5.611023 0.05965,-5.611021 -0.729577,0.124287 c -4.667057,0.795056 -7.437026,1.85504 -10.83109,4.144733 -7.01155,4.730112 -11.251936,12.876242 -11.252155,21.616315 -8.5e-5,3.376099 0.29891,5.453727 1.190339,8.271281 2.824952,8.928874 10.030126,15.548252 19.046783,17.498232 2.697718,0.58342 2.447386,1.13793 2.515864,-5.572908 z M 49.822376,70.00732 C 52.78685,57.940994 62.77465,48.691935 74.702611,46.96733 l 1.892319,-0.2736 V 36.354605 26.015479 h -0.881797 c -1.472311,0 -6.001733,0.652861 -8.679668,1.25107 -7.611216,1.700222 -15.419507,5.489608 -21.595646,10.480429 -2.657927,2.14782 -6.974898,6.612643 -8.952903,9.259532 -5.893732,7.886761 -9.279169,16.565248 -10.430851,26.739234 l -0.107206,0.947064 11.534716,0.05783 11.534714,0.05783 0.169876,-1.451508 c 0.09343,-0.798329 0.379727,-2.305664 0.636211,-3.349632 z"
       id="path41"
       sodipodi:nodetypes="ssscssssssssssssscssssscsssssscccssscsssscccssssscssscsscsscccsssssssssscsscccsssssssscccsscccccccsssssscccsssssscssssscccsssscsscssssssscccsscccsscccsscccssscccssssscssccssscccssssccccsssscccsssssscsscccssssscccsss"
       transform="matrix(0.26458333,0,0,0.26458333,65.4537,102.595)" />
  </g>
  <g
     inkscape:groupmode="layer"
     id="layer23"
     inkscape:label="Background-Colors"
     style="display:inline">
    <path
       style="display:inline;fill:#48a3cf;fill-opacity:1;fill-rule:nonzero;stroke:#cccbca;stroke-width:0.0937329;stroke-linecap:round;stroke-dasharray:none;stroke-opacity:1;paint-order:markers stroke fill"
       d="m 83.921205,142.81955 c -3.323204,-0.42642 -6.667742,-1.78281 -9.271038,-3.7599 l -0.732281,-0.55613 -0.546432,0.56017 c -0.663728,0.68041 -1.236885,0.91341 -2.062716,0.83853 -1.334873,-0.12105 -2.293725,-1.20789 -2.293725,-2.5999 0,-0.81812 0.273181,-1.40406 0.94287,-2.02237 l 0.51865,-0.47886 -0.516284,-0.79205 c -3.2378,-4.96722 -4.008676,-11.20908 -2.079722,-16.83972 1.696409,-4.95183 5.246284,-8.9619 9.938977,-11.22742 2.092154,-1.01005 4.644384,-1.73247 6.608172,-1.87047 0.40146,-0.0178 0.794876,-0.10615 1.192411,-0.0707 l 0.02612,2.01955 v 2.09044 l -1.059934,0.11255 c -6.141166,0.65212 -11.440818,5.13828 -13.052754,11.04917 -1.219541,4.472 -0.509844,8.918 2.03493,12.74812 0.852979,1.28381 2.741218,3.20136 3.969859,4.03148 2.384754,1.61124 4.322415,2.30407 7.568935,2.70634 l 0.445232,0.0552 v 2.05638 2.05639 l -0.492098,-0.0119 c -0.270653,-0.007 -0.78328,-0.0492 -1.139169,-0.0949 z"
       id="use595"
       inkscape:label="leftOuter-LB"
       transform="translate(-65.453699,-102.595)"
       sodipodi:nodetypes="cscscsscsscccccssssccccccc" />
    <path
       style="display:inline;fill:#062a4a;fill-opacity:1;fill-rule:nonzero;stroke:#cccbca;stroke-width:0.0937329;stroke-linecap:round;stroke-dasharray:none;stroke-opacity:1;paint-order:markers stroke fill"
       d="m 87.000484,140.8876 c 0.0376,-1.12128 0.07516,-2.04572 0.08348,-2.05431 0.0083,-0.009 0.525949,-0.0821 1.150303,-0.16332 4.929039,-0.64125 9.018346,-3.37597 11.506001,-7.69462 2.040502,-3.54239 2.510932,-8.25421 1.221272,-12.23215 -1.246352,-3.84437 -4.109628,-7.18567 -7.700391,-8.98599 -1.609326,-0.80688 -3.77626,-1.4324 -5.435648,-1.56909 l -0.773297,-0.0637 v -2.06281 -2.06281 l 0.926301,0.0564 c 3.409767,0.20773 7.347545,1.74958 10.255276,4.0155 l 0.956839,0.74563 0.187465,-0.22727 c 0.103108,-0.125 0.297186,-0.36996 0.431284,-0.54435 0.134102,-0.17439 0.471541,-0.44118 0.749861,-0.59288 0.41606,-0.22677 0.61439,-0.27525 1.11531,-0.27261 2.48212,0.0131 3.48281,3.3194 1.43758,4.74984 -0.23565,0.16481 -0.48435,0.34184 -0.55267,0.39339 -0.0983,0.0742 -0.0262,0.25 0.34609,0.84359 1.39665,2.22684 2.35236,4.81204 2.77215,7.49864 0.21971,1.40604 0.21971,4.21794 0,5.62398 -1.37406,8.79379 -8.229155,15.45158 -17.029567,16.53942 -0.436849,0.054 -1.00166,0.0982 -1.255133,0.0982 l -0.412569,0.0187 z"
       id="use596"
       inkscape:label="rightOuter-DB"
       transform="translate(-65.453699,-102.595)"
       sodipodi:nodetypes="cccssssccccccssscsccccsscc" />
    <path
       style="display:inline;fill:#062a4a;fill-opacity:1;fill-rule:nonzero;stroke:#cccbca;stroke-width:0.0937329;stroke-linecap:round;stroke-dasharray:none;stroke-opacity:1;paint-order:markers stroke fill"
       d="m 87.0522,134.34296 v -3.03955 h 0.219339 c 0.418767,0 1.705988,-0.37971 2.396863,-0.70704 1.845432,-0.87435 3.349747,-2.4766 4.083791,-4.34966 0.197586,-0.50417 0.328692,-1.03466 0.574556,-2.32477 l 0.04019,-0.2109 h 2.950802 2.950799 v 0.41502 c 0,1.17811 -0.452015,3.18653 -1.044764,4.64213 -1.723073,4.23131 -5.639163,7.44368 -10.156322,8.33124 -0.51553,0.10129 -1.179862,0.20642 -1.476293,0.23362 l -0.538964,0.0495 z"
       id="use597"
       inkscape:label="BotRightQTR-DB"
       transform="translate(-65.453699,-102.595)" />
    <path
       style="display:inline;fill:#062a4a;fill-opacity:1;fill-rule:nonzero;stroke:#cccbca;stroke-width:0.0937329;stroke-linecap:round;stroke-dasharray:none;stroke-opacity:1;paint-order:markers stroke fill"
       d="m 94.20376,121.62548 c -0.342082,-2.14968 -1.762517,-4.31849 -3.610681,-5.51301 -0.757738,-0.48975 -1.751307,-0.88626 -2.720716,-1.08577 L 87.0522,114.85791 v -2.65027 -2.65027 h 0.271883 c 0.149537,0 0.751456,0.082 1.337596,0.18219 4.997023,0.85428 9.083494,4.27405 10.811435,9.04756 0.291444,0.80513 0.585156,2.04286 0.740256,3.11956 l 0.0574,0.39837 h -2.979429 -2.979433 z"
       id="use598"
       inkscape:label="TopRightQTR-DB"
       transform="translate(-65.453699,-102.595)" />
    <path
       style="display:inline;fill:#062a4a;fill-opacity:1;fill-rule:nonzero;stroke:#cccbca;stroke-width:0.0937329;stroke-linecap:round;stroke-dasharray:none;stroke-opacity:1;paint-order:markers stroke fill"
       d="m 87.0522,128.40987 v -1.48755 l 0.434818,-0.12174 c 0.614104,-0.17194 1.46617,-0.76988 1.858304,-1.30407 0.448673,-0.61121 0.676339,-1.15157 0.793078,-1.88234 0.309385,-1.93666 -0.839031,-3.78305 -2.734701,-4.39678 l -0.351499,-0.1138 v -1.39873 c 0,-0.76929 -0.03502,-1.40643 0.0036,-1.40567 0.03866,8e-4 0.400262,0.0718 0.72208,0.14768 2.70805,0.63851 4.711748,2.93538 5.099172,5.84527 0.367919,2.76338 -1.1,5.59504 -3.574524,6.89537 -0.546549,0.2872 -1.961201,0.70282 -2.27691,0.70282 -0.09124,0 0.02654,-0.34036 0.02654,-1.48046 z"
       id="use599"
       inkscape:label="RightInner-DB"
       transform="translate(-65.453699,-102.595)"
       sodipodi:nodetypes="scsscscsccsssss" />
    <path
       style="display:inline;fill:#062a4a;fill-opacity:1;fill-rule:nonzero;stroke:#cccbca;stroke-width:0.0937329;stroke-linecap:round;stroke-dasharray:none;stroke-opacity:1;paint-order:markers stroke fill"
       d="m 85.120209,125.40287 c -0.917924,-0.52649 -1.383376,-1.33011 -1.387051,-2.39483 -0.0037,-1.06622 0.558294,-1.9847 1.494628,-2.44281 1.710997,-0.83711 3.695184,0.44256 3.698156,2.38507 0.0011,0.77539 -0.132549,1.20161 -0.550577,1.7547 -0.507452,0.67141 -1.149234,0.97467 -2.0603,0.97356 -0.619196,-8e-4 -0.780346,-0.038 -1.194856,-0.27569 z"
       id="use600"
       inkscape:label="Center-DB"
       transform="translate(-65.453699,-102.595)" />
    <path
       style="display:inline;fill:#062a4a;fill-opacity:1;fill-rule:nonzero;stroke:#cccbca;stroke-width:0.0937329;stroke-linecap:round;stroke-dasharray:none;stroke-opacity:1;paint-order:markers stroke fill"
       d="m 84.802609,129.75054 c -0.283543,-0.074 -0.907889,-0.32722 -1.387433,-0.56272 -0.69551,-0.34157 -1.017878,-0.57413 -1.593461,-1.14957 -1.473338,-1.47297 -2.153945,-3.22132 -2.049406,-5.26454 0.128602,-2.51352 1.458798,-4.62013 3.641616,-5.76717 0.516519,-0.27143 1.902161,-0.7204 2.220195,-0.7204 0.04331,0 0.01209,0.64784 0.01209,1.4152 v 1.39521 l -0.492096,0.15709 c -1.377058,0.4396 -2.36514,1.64445 -2.622553,3.19789 -0.307827,1.85768 0.926971,3.85828 2.685238,4.35057 l 0.429411,0.12022 v 1.48755 c 0,1.68776 0.06861,1.57873 -0.843595,1.34067 z"
       id="use601"
       inkscape:label="LeftInner-DB"
       transform="translate(-65.453699,-102.595)"
       sodipodi:nodetypes="scsscsscssccsss" />
    <path
       style="display:inline;fill:#062a4a;fill-opacity:1;fill-rule:nonzero;stroke:#cccbca;stroke-width:0.0937329;stroke-linecap:round;stroke-dasharray:none;stroke-opacity:1"
       d="m 72.467273,121.76608 c 0.725967,-6.34885 6.071875,-11.553 12.499367,-12.16792 l 0.679564,-0.065 v 2.67471 2.6747 l -0.492096,0.0669 c -1.610291,0.21874 -3.278153,1.09468 -4.481499,2.35363 -1.284684,1.34405 -1.88908,2.59469 -2.292741,4.74425 l -0.04841,0.25777 H 75.368549 72.40564 Z"
       id="use602"
       inkscape:label="TopLeftQTR-DB"
       transform="translate(-65.453699,-102.595)" />
    <path
       style="display:inline;fill:#062a4a;fill-opacity:1;fill-rule:nonzero;stroke:#cccbca;stroke-width:0.0937329;stroke-linecap:round;stroke-dasharray:none;stroke-opacity:1;paint-order:markers stroke fill"
       d="m 85.03694,137.33424 c -2.434971,-0.29206 -4.513416,-1.02901 -6.37384,-2.25996 -3.669738,-2.42808 -5.884917,-6.19739 -6.27868,-10.68367 l -0.05965,-0.67957 h 2.999386 2.999387 l 0.05885,0.44523 c 0.09748,0.7374 0.494435,2.05007 0.808053,2.67208 1.18289,2.34607 3.324478,3.97568 5.776184,4.39531 l 0.679564,0.11631 v 3.02804 c 0,2.10776 0.0897,2.77369 -0.0579,2.95467 -0.08761,0.10742 -0.300574,0.0417 -0.551361,0.0115 z"
       id="use603"
       inkscape:label="BotLeftQTR-DB"
       transform="translate(-65.453699,-102.595)"
       sodipodi:nodetypes="cssccccsscsscc" />
  </g>
</svg>
