<?xml version="1.0" encoding="UTF-8" standalone="no"?>
<!-- Created with Inkscape (http://www.inkscape.org/) -->

<svg
   width="41.798294mm"
   height="41.744888mm"
   viewBox="0 0 41.798294 41.744888"
   version="1.1"
   id="svg1"
   inkscape:version="1.4 (e7c3feb1, 2024-10-09)"
   sodipodi:docname="remote-tech-us_v3.svg"
   inkscape:export-filename="remote-tech-us_v3-32x32.png"
   inkscape:export-xdpi="19.44577"
   inkscape:export-ydpi="19.44577"
   xmlns:inkscape="http://www.inkscape.org/namespaces/inkscape"
   xmlns:sodipodi="http://sodipodi.sourceforge.net/DTD/sodipodi-0.dtd"
   xmlns:xlink="http://www.w3.org/1999/xlink"
   xmlns="http://www.w3.org/2000/svg"
   xmlns:svg="http://www.w3.org/2000/svg">
  <sodipodi:namedview
     id="namedview1"
     pagecolor="#bcbcbc"
     bordercolor="#000000"
     borderopacity="0.25"
     inkscape:showpageshadow="2"
     inkscape:pageopacity="0.0"
     inkscape:pagecheckerboard="true"
     inkscape:deskcolor="#d1d1d1"
     inkscape:document-units="mm"
     inkscape:zoom="3.9115343"
     inkscape:cx="76.312766"
     inkscape:cy="81.681503"
     inkscape:window-width="1440"
     inkscape:window-height="900"
     inkscape:window-x="0"
     inkscape:window-y="0"
     inkscape:window-maximized="0"
     inkscape:current-layer="layer23"
     showgrid="true">
    <inkscape:grid
       id="grid41"
       units="mm"
       originx="0"
       originy="0"
       spacingx="1"
       spacingy="1"
       empcolor="#0099e5"
       empopacity="0.30196078"
       color="#0099e5"
       opacity="0.14901961"
       empspacing="5"
       enabled="true"
       visible="true" />
  </sodipodi:namedview>
  <defs
     id="defs1">
    <linearGradient
       id="swatch243"
       inkscape:swatch="solid">
      <stop
         style="stop-color:#fafafa;stop-opacity:1;"
         offset="0"
         id="stop243" />
    </linearGradient>
    <linearGradient
       inkscape:collect="always"
       xlink:href="#swatch243"
       id="linearGradient1"
       gradientUnits="userSpaceOnUse"
       gradientTransform="matrix(0.04429298,0,0,0.04567047,78.263449,102.2433)"
       x1="109.02111"
       y1="454.89444"
       x2="255.66219"
       y2="454.89444" />
    <linearGradient
       inkscape:collect="always"
       xlink:href="#swatch243"
       id="linearGradient2"
       gradientUnits="userSpaceOnUse"
       gradientTransform="matrix(0.09969171,0,0,0.10284467,68.159412,76.324805)"
       x1="109.02111"
       y1="454.89444"
       x2="255.66219"
       y2="454.89444" />
    <linearGradient
       inkscape:collect="always"
       xlink:href="#swatch243"
       id="linearGradient3"
       gradientUnits="userSpaceOnUse"
       gradientTransform="matrix(0.20017882,0,0,0.19967333,49.82486,32.626847)"
       x1="109.02111"
       y1="454.89444"
       x2="255.66219"
       y2="454.89444" />
    <linearGradient
       inkscape:collect="always"
       xlink:href="#swatch243"
       id="linearGradient4"
       gradientUnits="userSpaceOnUse"
       gradientTransform="matrix(0.27630112,0,0,0.27577378,35.956151,-1.9757579)"
       x1="109.02111"
       y1="454.89444"
       x2="255.66219"
       y2="454.89444" />
    <linearGradient
       inkscape:collect="always"
       xlink:href="#swatch243"
       id="linearGradient5"
       gradientUnits="userSpaceOnUse"
       gradientTransform="matrix(0.26458333,0,0,1.2788194,54.058201,-366.67958)"
       x1="122"
       y1="374"
       x2="122"
       y2="374" />
  </defs>
  <g
     inkscape:groupmode="layer"
     id="layer24"
     inkscape:label="Misc"
     style="display:none">
    <path
       style="fill:#eeeeec;stroke:#eeeeec;stroke-width:0.112;stroke-linecap:round;stroke-miterlimit:0;stroke-dasharray:none;stroke-opacity:1;paint-order:markers stroke fill"
       d="m 134.03768,145.67544 c -3.13871,-0.16276 -5.94576,-0.89106 -8.6212,-2.23683 -0.68975,-0.34694 -1.9889,-1.12057 -2.51787,-1.49936 l -0.33962,-0.24319 -0.28283,0.20761 c -0.38907,0.2856 -1.07459,0.59216 -1.51842,0.67901 -0.49956,0.0978 -1.41676,0.0435 -1.90459,-0.11265 -0.83386,-0.26691 -1.693,-0.95856 -2.1433,-1.72545 -0.48305,-0.82267 -0.68202,-1.94386 -0.49731,-2.80235 0.15783,-0.73357 0.37317,-1.18914 0.89455,-1.89253 0.0825,-0.11124 0.0668,-0.15657 -0.21388,-0.62037 -0.43743,-0.72274 -1.29557,-2.51077 -1.60537,-3.34499 -1.84707,-4.97374 -1.73149,-10.43915 0.32458,-15.34756 2.30125,-5.49372 6.92578,-9.77343 12.60551,-11.66561 1.29424,-0.43117 2.90517,-0.78592 4.3722,-0.96281 0.98919,-0.11928 3.5812,-0.10298 4.60853,0.029 3.66944,0.47132 6.98548,1.76545 9.83574,3.83855 l 0.44141,0.32106 0.3156,-0.25709 c 1.07811,-0.87822 2.57981,-1.08909 3.87287,-0.54383 1.06071,0.44728 1.95232,1.4891 2.26558,2.64729 0.15925,0.5888 0.14488,1.56264 -0.0314,2.12552 -0.22181,0.70835 -0.49065,1.17782 -0.97028,1.69437 l -0.17293,0.18624 0.23529,0.4046 c 1.35296,2.32641 2.28929,5.22437 2.62196,8.11503 0.1157,1.00539 0.099,3.48482 -0.0307,4.5491 -0.3184,2.61303 -1.07775,5.07197 -2.26155,7.32335 -3.01267,5.7296 -8.59435,9.7682 -14.98591,10.84299 -1.32396,0.22264 -3.18439,0.34861 -4.29667,0.29093 z m 0.11817,-3.41584 v -2.15231 l -0.32496,-0.0338 c -0.17873,-0.0186 -0.47784,-0.0485 -0.66469,-0.0664 -0.68476,-0.0657 -1.77814,-0.28211 -2.572,-0.50896 -5.3743,-1.53576 -9.46877,-5.8699 -10.7075,-11.33427 -0.27075,-1.19431 -0.348,-1.94634 -0.34596,-3.36777 0.001,-1.06211 0.0276,-1.49569 0.12986,-2.15656 0.69246,-4.47636 3.08577,-8.17456 6.90334,-10.66723 1.89334,-1.23625 4.51827,-2.14576 6.72519,-2.33022 0.22748,-0.019 0.52659,-0.0486 0.6647,-0.0657 l 0.2511,-0.0311 v -2.1234 -2.12339 h -0.39917 c -0.51555,0 -1.75747,0.14363 -2.58455,0.29891 -7.07578,1.32844 -12.8352,6.3773 -15.02601,13.17219 -0.60156,1.86578 -0.87642,3.469 -0.93697,5.46525 -0.12228,4.03135 0.96712,7.91701 3.15518,11.25391 l 0.44452,0.67791 -0.2585,0.20746 c -0.44929,0.36058 -0.70205,0.66629 -0.92669,1.12083 -0.21648,0.43802 -0.21806,0.44658 -0.21806,1.18588 0,0.7403 0.001,0.74729 0.2197,1.1892 0.49967,1.01101 1.49543,1.60312 2.53372,1.50663 0.75417,-0.0701 1.28197,-0.35552 1.82576,-0.98735 l 0.34336,-0.39894 0.74097,0.55098 c 2.78531,2.07113 6.11672,3.38248 9.52102,3.74776 0.86034,0.0923 0.97795,0.10294 1.25553,0.11339 l 0.25111,0.009 z m 3.10755,2.00273 c 4.17467,-0.50106 8.12129,-2.37383 11.16128,-5.2963 6.173,-5.93437 7.7849,-15.1609 3.98233,-22.79487 -0.28362,-0.5694 -0.70565,-1.33728 -0.93785,-1.7064 -0.23219,-0.36912 -0.41399,-0.67772 -0.40399,-0.68578 0.01,-0.008 0.21136,-0.14077 0.44746,-0.29492 0.8447,-0.55152 1.25461,-1.30287 1.25461,-2.29966 0,-0.8556 -0.27069,-1.49965 -0.85461,-2.03331 -0.7969,-0.72833 -1.82888,-0.89793 -2.78901,-0.45837 -0.53469,0.24478 -0.84144,0.5444 -1.41567,1.38274 -0.008,0.0114 -0.2752,-0.19053 -0.59414,-0.44881 -2.5145,-2.03618 -5.61525,-3.46066 -8.78174,-4.03431 -0.80363,-0.14559 -2.0746,-0.29256 -2.53664,-0.29334 l -0.33974,-5.6e-4 v 2.12182 2.12182 l 0.22157,0.0319 c 0.12186,0.0175 0.43426,0.0487 0.69423,0.0692 1.11828,0.0884 2.75168,0.47799 3.98816,0.95122 0.86958,0.33281 2.13852,0.99742 2.98373,1.56275 3.80104,2.54235 6.24827,6.62236 6.70939,11.18589 0.0898,0.88839 0.0411,2.91157 -0.0904,3.75732 -0.38856,2.49934 -1.39196,4.88344 -2.89698,6.88326 -0.26901,0.35746 -0.68924,0.86262 -0.93383,1.12259 l -0.44473,0.47267 -0.44486,-0.43857 -0.44487,-0.43858 0.31298,-0.33805 c 2.24678,-2.42679 3.47941,-5.32765 3.7328,-8.78473 l 0.0401,-0.54653 h -3.0209 -3.02089 v -0.64992 -0.64992 h 2.98373 2.98373 v -0.12536 c 0,-0.26337 -0.18935,-1.4086 -0.33584,-2.0312 -0.45181,-1.92032 -1.41526,-3.89799 -2.67685,-5.49479 -0.56045,-0.70936 -1.71708,-1.8277 -2.4821,-2.39992 -1.72606,-1.29106 -3.45959,-2.08424 -5.58342,-2.5547 -0.49889,-0.11051 -1.71785,-0.2743 -2.04142,-0.2743 h -0.23331 l 1e-4,2.73263 10e-5,2.73262 0.60551,0.0991 c 1.66261,0.27206 3.08128,1.00804 4.30011,2.23085 0.67123,0.67341 1.13548,1.31982 1.55164,2.16044 1.23903,2.50277 1.12266,5.50974 -0.30652,7.9201 -0.32744,0.55225 -0.96807,1.38292 -1.09927,1.42539 -0.0325,0.0105 -0.25581,-0.16089 -0.49626,-0.3809 l -0.43717,-0.40003 0.40844,-0.50907 c 0.70543,-0.87923 1.19277,-1.96524 1.41423,-3.15153 0.14598,-0.78201 0.0941,-2.21533 -0.10804,-2.98374 -0.33668,-1.2799 -0.94629,-2.33563 -1.87644,-3.2496 -1.0253,-1.00748 -2.33813,-1.65852 -3.73587,-1.85267 l -0.22257,-0.0309 0.0158,1.4823 0.0158,1.48231 0.3545,0.0989 c 1.00925,0.28155 1.88855,1.01935 2.35873,1.97913 0.28453,0.58082 0.40054,1.08344 0.40274,1.74489 0.003,0.89449 -0.2599,1.6943 -0.78582,2.39087 l -0.25008,0.33123 -0.15378,-0.1337 c -0.0846,-0.0735 -0.26552,-0.23833 -0.40209,-0.36619 l -0.24831,-0.23248 0.14819,-0.17611 c 0.76588,-0.9102 0.81998,-2.38426 0.12553,-3.4203 -1.04673,-1.5616 -3.35234,-1.5616 -4.39906,0 -0.97168,1.44962 -0.45177,3.43403 1.0912,4.16492 0.38026,0.18013 0.43317,0.18916 1.10833,0.18916 0.67048,0 0.73002,-0.01 1.09585,-0.18332 0.21276,-0.10082 0.48068,-0.26571 0.59538,-0.36641 l 0.20853,-0.1831 0.3795,0.38561 0.37951,0.3856 -0.23634,0.20772 c -0.3339,0.29346 -0.993,0.64549 -1.43007,0.7638 l -0.37198,0.10069 v 1.56366 1.56366 l 0.28065,-0.0405 c 1.24322,-0.17923 2.54682,-0.78898 3.44213,-1.61004 l 0.32547,-0.29847 0.46363,0.42341 0.46363,0.42341 -0.39113,0.36589 c -1.03864,0.97159 -2.5993,1.71726 -4.02487,1.92304 l -0.52997,0.0765 -0.0153,3.08393 -0.0153,3.08393 h 0.29391 c 0.42488,0 1.52939,-0.16213 2.24775,-0.32994 2.40147,-0.56098 4.59368,-1.71602 6.35606,-3.3489 l 0.35905,-0.33267 0.43624,0.43916 0.43623,0.43917 -0.20445,0.214 c -0.29185,0.30547 -1.30396,1.12953 -1.8588,1.51342 -2.15584,1.49161 -4.67309,2.39781 -7.35325,2.64713 -0.37223,0.0346 -0.68108,0.0686 -0.68632,0.0755 -0.005,0.007 -0.028,0.98009 -0.0506,2.16267 l -0.041,2.15014 0.57965,-0.0403 c 0.31881,-0.0221 0.90126,-0.0789 1.29432,-0.12604 z m -3.10755,-8.55222 v -3.08884 l -0.54543,-0.0743 c -2.4109,-0.32835 -4.74338,-2.08287 -5.86623,-4.41267 -0.46183,-0.95824 -0.63365,-1.57022 -0.83355,-2.96896 l -0.0274,-0.19202 h -3.04015 -3.04013 v 0.4306 c 0,1.23642 0.38797,3.12372 0.92224,4.48625 1.65814,4.22868 5.23384,7.39147 9.61184,8.50191 0.80491,0.20416 1.97582,0.39384 2.47912,0.40161 l 0.33973,0.005 z m 0.0453,-5.92718 0.0157,-1.54192 -0.37295,-0.10095 c -1.28405,-0.34758 -2.3254,-1.44115 -2.67792,-2.81222 -0.12911,-0.50214 -0.1278,-1.38834 0.003,-1.89068 0.34944,-1.34419 1.38148,-2.42142 2.66211,-2.77868 l 0.3545,-0.0989 0.0158,-1.48458 0.0158,-1.48459 -0.19304,0.0329 c -1.23482,0.21036 -1.96771,0.49081 -2.86572,1.09663 -1.85514,1.2515 -2.97707,3.40683 -2.97713,5.71931 -2e-5,0.89326 0.0791,1.44297 0.31494,2.18845 0.74744,2.36243 2.65381,4.1138 5.03946,4.62974 0.71377,0.15436 0.64754,0.30107 0.66566,-1.4745 z m -7.06976,-7.29111 c 0.78435,-3.19255 3.42696,-5.6397 6.58289,-6.096 l 0.50068,-0.0724 v -2.73556 -2.73556 h -0.23331 c -0.38955,0 -1.58796,0.17274 -2.29649,0.33101 -2.0138,0.44985 -4.07975,1.45246 -5.71385,2.77295 -0.70324,0.56828 -1.84544,1.7496 -2.36879,2.44992 -1.55938,2.0867 -2.45511,4.38289 -2.75983,7.07475 l -0.0284,0.25058 3.05189,0.0153 3.0519,0.0153 0.045,-0.38404 c 0.0247,-0.21123 0.10047,-0.61004 0.16833,-0.88626 z"
       id="path41"
       sodipodi:nodetypes="ssscssssssssssssscssssscsssssscccssscsssscccssssscssscsscsscccsssssssssscsscccsssssssscccsscccccccsssssscccsssssscssssscccsssscsscssssssscccsscccsscccsscccssscccssssscssccssscccssssccccsssscccsssssscsscccssssscccsss"
       inkscape:label="copy1"
       transform="translate(-65.453699,-102.595)" />
    <path
       style="fill:#eeeeec;stroke:#eeeeec;stroke-width:0.0435184;stroke-linecap:round;stroke-miterlimit:0;stroke-dasharray:none;stroke-opacity:1;paint-order:markers stroke fill"
       d="m 119.01559,186.73571 c -3.13123,-0.42539 -5.88017,-1.41473 -8.49952,-3.05898 -0.60174,-0.37774 -1.11582,-0.68679 -1.14239,-0.68679 -0.0266,0 -0.30858,0.15672 -0.62668,0.34827 -1.10812,0.66728 -2.48435,0.71091 -3.65837,0.11599 -0.57608,-0.29192 -1.43034,-1.18313 -1.72607,-1.80073 -0.62087,-1.2966 -0.44173,-2.99274 0.4405,-4.17064 l 0.23624,-0.31543 -0.31725,-0.50702 c -0.88263,-1.41056 -1.92025,-3.97048 -2.34518,-5.78578 -0.56438,-2.41104 -0.70815,-5.51879 -0.35926,-7.76579 1.22359,-7.88053 6.51003,-14.23611 13.93715,-16.75584 6.04576,-2.05109 12.9146,-1.14713 18.19663,2.39474 0.5937,0.3981 1.13162,0.72467 1.19538,0.72569 0.0637,0.001 0.17664,-0.0713 0.25086,-0.16073 0.0742,-0.0894 0.41528,-0.30741 0.75793,-0.4844 0.56702,-0.29289 0.71072,-0.32215 1.59964,-0.32573 0.86349,-0.003 1.05077,0.0303 1.61635,0.29155 0.785,0.3626 1.57546,1.16589 1.95985,1.99167 0.23821,0.51172 0.27511,0.72301 0.27389,1.56806 -0.002,1.14679 -0.23382,1.86059 -0.83273,2.56028 l -0.37357,0.43645 0.77824,1.61151 c 0.42804,0.88633 0.94064,2.12232 1.13913,2.74665 1.80687,5.68336 1.11453,11.90165 -1.88595,16.93868 -3.83972,6.4459 -10.62766,10.29079 -18.07564,10.23858 -0.83112,-0.006 -1.97375,-0.0734 -2.53918,-0.15026 z m 2.00471,-3.22544 v -2.15262 l -0.48832,-0.0612 c -1.6577,-0.20772 -2.25724,-0.32315 -3.31549,-0.63834 -2.45813,-0.73212 -4.90218,-2.23154 -6.65402,-4.08223 -4.96775,-5.2481 -5.60989,-13.14494 -1.55348,-19.10427 0.90378,-1.32777 2.74717,-3.15687 4.04831,-4.01696 2.214,-1.46351 4.64893,-2.33129 7.26907,-2.59061 l 0.69393,-0.0687 v -2.09933 -2.09934 h 0.61684 0.61683 v 2.09554 2.09555 l 0.69394,0.0717 c 2.72571,0.28173 5.15613,1.15829 7.37632,2.66038 1.20109,0.81261 3.11051,2.72211 3.92265,3.92282 3.08597,4.56243 3.53295,10.17451 1.20682,15.15229 -0.53967,1.15486 -1.5488,2.68885 -2.36245,3.59118 l -0.58581,0.64966 -0.44069,-0.43251 -0.4407,-0.43251 0.6032,-0.70084 c 1.6494,-1.91641 2.70161,-4.05237 3.17632,-6.44786 0.1867,-0.94215 0.37979,-2.99372 0.25581,-2.71802 -0.0443,0.0985 -0.75171,0.1285 -3.03059,0.1285 h -2.9728 v -0.61683 -0.61684 h 2.98137 2.98136 v -0.31797 c 0,-0.17488 -0.0928,-0.77344 -0.20626,-1.33014 -0.5916,-2.90299 -1.99866,-5.43901 -4.13195,-7.4472 -2.33975,-2.20254 -5.05109,-3.42606 -8.4354,-3.80655 l -0.59114,-0.0665 v 2.76809 2.76809 l 0.73838,0.12194 c 1.60368,0.26484 3.17563,1.13372 4.36887,2.41485 0.88223,0.94721 1.38804,1.80106 1.80372,3.04485 0.30773,0.92079 0.3266,1.06487 0.32991,2.51874 0.004,1.77519 -0.12302,2.38654 -0.76909,3.70101 -0.38365,0.78055 -1.24768,2.00745 -1.41011,2.00233 -0.0416,-0.001 -0.25817,-0.16678 -0.48132,-0.3677 -0.28648,-0.25795 -0.37713,-0.40306 -0.30842,-0.49373 0.66781,-0.88124 1.18935,-1.81863 1.44384,-2.5951 0.26839,-0.8189 0.29804,-1.04456 0.29519,-2.24681 -0.003,-1.19186 -0.0342,-1.42547 -0.2895,-2.15892 -0.79189,-2.27469 -2.6343,-4.00752 -4.80497,-4.51917 -0.36271,-0.0855 -0.71731,-0.15614 -0.78799,-0.15697 -0.0969,-0.001 -0.12851,0.36109 -0.12851,1.47289 v 1.47441 l 0.43693,0.129 c 2.694,0.79538 3.61171,4.24169 1.68954,6.34484 -0.51645,0.56508 -1.51953,1.16606 -1.94656,1.16625 -0.16364,7e-5 -0.17991,0.14496 -0.17991,1.60261 v 1.60252 l 0.43693,-0.071 c 1.13121,-0.18389 2.34899,-0.75037 3.1737,-1.47631 l 0.45738,-0.4026 0.44103,0.41139 0.44102,0.41138 -0.239,0.25858 c -0.80354,0.86935 -2.57783,1.76022 -3.98697,2.00187 l -0.72409,0.12416 v 3.10981 3.1098 l 0.53973,-0.0546 c 3.0831,-0.31209 5.79539,-1.45811 8.05632,-3.40404 l 0.72384,-0.62299 0.42696,0.43326 0.42696,0.43326 -0.38354,0.36016 c -2.24262,2.10591 -5.49743,3.63236 -8.40239,3.94058 -0.33926,0.036 -0.79032,0.0903 -1.00235,0.12064 l -0.38553,0.0552 v 2.16316 2.16316 l 0.84815,-0.0724 c 9.63261,-0.82247 17.05548,-8.04371 18.07634,-17.58532 0.14775,-1.38101 0.0682,-3.84162 -0.16793,-5.19169 -0.45643,-2.61003 -1.55503,-5.40155 -2.95949,-7.52001 -0.1795,-0.27076 -0.17866,-0.27343 0.15859,-0.50464 0.65126,-0.44646 1.00932,-0.86155 1.21316,-1.40634 0.52544,-1.40438 -0.089,-2.90459 -1.43953,-3.51465 -1.15075,-0.51982 -2.48912,-0.0348 -3.30904,1.19924 l -0.15313,0.23047 -0.89946,-0.70624 c -3.54133,-2.78059 -8.18005,-4.27482 -12.70413,-4.09225 -5.05767,0.20409 -9.65262,2.21186 -13.17564,5.75712 -5.83784,5.87469 -7.34152,14.81377 -3.73869,22.22576 0.3573,0.73506 0.88102,1.68917 1.16382,2.12025 l 0.51418,0.78379 -0.46368,0.38758 c -0.91143,0.76186 -1.23995,2.22035 -0.7398,3.28438 0.30222,0.64293 0.98672,1.24057 1.64467,1.43596 0.67261,0.19975 0.74928,0.19963 1.42888,-0.002 0.40074,-0.11901 0.70683,-0.31304 1.12882,-0.71555 l 0.57899,-0.55226 0.56043,0.43574 c 2.01374,1.56571 4.97908,2.94775 7.5251,3.50717 0.93556,0.20556 2.61741,0.44389 3.2388,0.45895 l 0.43692,0.0106 z m -0.0242,-6.54752 0.0272,-3.08016 -0.73194,-0.12552 c -3.35812,-0.57585 -6.03362,-3.46458 -6.51676,-7.03614 l -0.0661,-0.48833 h -3.0841 -3.0841 l 0.0649,0.74534 c 0.30954,3.55269 1.68078,6.54881 4.10688,8.97345 1.02302,1.0224 2.40182,2.03904 3.5438,2.61297 0.84912,0.42674 2.41972,0.98878 3.30823,1.18385 0.78008,0.17127 2.10691,0.35266 2.30195,0.31471 0.0651,-0.0127 0.11278,-1.15042 0.12998,-3.10017 z m 0.0242,-5.94151 v -1.58532 l -0.33411,-0.0706 c -0.90382,-0.19096 -1.98204,-1.09847 -2.42518,-2.0412 -0.68168,-1.45022 -0.37107,-3.31246 0.73738,-4.42091 0.45983,-0.45983 1.20096,-0.89751 1.7392,-1.0271 l 0.28271,-0.0681 v -1.49776 -1.49777 l -0.4312,0.0729 c -1.26707,0.21407 -2.56057,0.89097 -3.5297,1.84712 -2.74926,2.71244 -2.78123,7.16106 -0.0712,9.90409 0.62289,0.63047 0.98675,0.89934 1.68586,1.24576 0.49034,0.24297 1.13787,0.50139 1.43897,0.57425 0.9835,0.23801 0.90726,0.35862 0.90726,-1.43535 z m 1.79499,-2.84419 c 0.25095,-0.11796 0.51153,-0.28105 0.57905,-0.36241 0.106,-0.12773 0.15238,-0.12347 0.33936,0.0311 0.20871,0.17258 0.2104,0.17224 0.0466,-0.009 -0.15927,-0.1767 -0.15147,-0.21775 0.12389,-0.65194 1.12748,-1.77786 0.0336,-4.18031 -1.96943,-4.32519 -0.83164,-0.0602 -1.43979,0.13143 -2.00976,0.63314 -0.65058,0.57267 -0.96074,1.2645 -0.95197,2.12349 0.008,0.77893 0.12757,1.15241 0.56905,1.77652 0.65971,0.93264 2.18212,1.29764 3.27322,0.78476 z m -9.05488,-3.40943 c 0.3276,-1.75299 0.73765,-2.79377 1.54755,-3.92799 1.13914,-1.59531 3.10964,-2.84302 4.97698,-3.1514 l 0.73536,-0.12144 v -2.7658 -2.76579 l -0.64253,0.0669 c -4.92068,0.51229 -9.1389,3.397 -11.33023,7.7484 -0.67509,1.34056 -1.39198,3.86664 -1.39198,4.9049 v 0.24354 h 3.03081 3.03081 z"
       id="path74"
       inkscape:label="copy2"
       transform="translate(-65.453699,-102.595)" />
    <path
       style="fill:#ffffff;stroke:none;stroke-width:0.158252;stroke-linecap:round;stroke-miterlimit:0;stroke-dasharray:none;stroke-opacity:1;paint-order:markers stroke fill"
       d="m 59.98351,100.63514 c -2.244643,-0.16255 -3.807385,-0.45278 -5.568814,-1.03424 -1.925076,-0.63548 -3.388002,-1.33652 -4.981707,-2.38727 l -0.817867,-0.53922 -0.264991,0.20212 c -0.145745,0.11116 -0.489502,0.30725 -0.763906,0.43574 -0.459088,0.21497 -0.579136,0.23362 -1.503815,0.23362 -0.949414,0 -1.035046,-0.0143 -1.550894,-0.25875 -1.607876,-0.76197 -2.537091,-2.48876 -2.269305,-4.21711 0.10771,-0.69519 0.38475,-1.36825 0.756258,-1.83732 L 43.265,90.92144 42.92422,90.33968 C 39.728472,84.88411 39.175343,78.384 41.398396,72.40892 c 1.476936,-3.96968 4.367037,-7.592087 7.926719,-9.935225 4.819904,-3.17267 10.415271,-4.206437 16.128652,-2.979835 2.454823,0.527024 5.547543,1.91436 7.544092,3.384135 l 0.516501,0.380226 0.468238,-0.335299 c 1.568061,-1.122863 3.577643,-0.971493 4.931913,0.371493 1.470289,1.458042 1.596829,3.747538 0.297487,5.382505 l -0.350137,0.44058 0.710512,1.4436 c 1.525612,3.09973 2.160699,5.79211 2.1677,9.18971 0.0041,1.9806 -0.132736,3.18399 -0.566947,4.98666 -1.899031,7.88404 -8.307062,13.98967 -16.290734,15.52195 -1.473355,0.28278 -3.760271,0.45817 -4.898882,0.37572 z m 0.209354,-3.41909 v -2.13027 l -0.355902,-0.0438 c -1.409859,-0.17364 -1.878114,-0.24972 -2.616924,-0.42517 -6.386902,-1.5168 -11.227273,-7.27779 -11.585902,-13.78949 -0.311297,-5.6523 2.174512,-10.65058 6.854504,-13.782518 1.88557,-1.261858 4.644896,-2.24294 6.784422,-2.41221 0.344689,-0.02727 0.711495,-0.06675 0.815125,-0.08774 l 0.188418,-0.03816 v -2.091943 -2.091944 h 0.626624 0.626624 l 0.02237,2.114475 0.02237,2.114474 0.753674,0.06227 c 4.293946,0.354755 8.450257,2.754746 11.058969,6.385826 0.654516,0.91103 1.691635,2.97085 2.044941,4.06147 1.710346,5.27965 0.433932,11.07635 -3.325432,15.10209 l -0.378618,0.40545 -0.444937,-0.43942 -0.444936,-0.4394 0.546126,-0.5941 c 1.505318,-1.63755 2.777313,-4.15419 3.243625,-6.41753 0.140115,-0.68008 0.301567,-1.96247 0.302681,-2.40418 l 7.93e-4,-0.27216 H 71.916677 68.90198 v -0.62806 -0.62806 h 2.972826 2.972824 v -0.34538 c 0,-0.18996 -0.09329,-0.80615 -0.207319,-1.36931 -0.999776,-4.93772 -4.57222,-8.94961 -9.37308,-10.526066 -1.047738,-0.344047 -2.627006,-0.655443 -3.324123,-0.655443 h -0.410386 v 2.717799 2.71781 l 0.314031,0.0521 c 3.693386,0.61219 6.326636,3.24972 6.894873,6.90609 0.133636,0.85989 0.05035,2.46249 -0.171894,3.30779 -0.299347,1.13854 -1.035439,2.53968 -1.749375,3.32992 l -0.2907,0.32177 -0.440783,-0.43531 -0.440783,-0.4353 0.413996,-0.51125 c 0.507535,-0.62677 1.010627,-1.62917 1.26527,-2.52105 0.250092,-0.87594 0.272965,-2.71423 0.04416,-3.54889 -0.353494,-1.2895 -0.829029,-2.16062 -1.678628,-3.07503 -1.054912,-1.13539 -2.272108,-1.78473 -3.888006,-2.07415 l -0.27216,-0.0487 v 1.48942 1.48943 l 0.417035,0.10688 c 0.525059,0.13457 1.278516,0.62025 1.734072,1.11778 0.931234,1.01705 1.22942,2.60608 0.746098,3.97596 -0.39126,1.10895 -1.368437,2.02087 -2.541303,2.3716 l -0.355902,0.10643 v 1.56516 1.56516 l 0.473401,-0.0742 c 1.061859,-0.16652 2.339072,-0.78818 3.229345,-1.57183 l 0.373732,-0.32897 0.437652,0.44316 0.437651,0.44315 -0.443741,0.39897 c -0.613759,0.55182 -1.042937,0.83512 -1.848457,1.22019 -0.68563,0.32776 -1.815893,0.66612 -2.233335,0.66858 -0.431903,0.003 -0.42196,-0.0698 -0.426256,3.10086 -0.0022,1.63302 -0.0031,3.01656 -0.002,3.07454 0.0024,0.12639 0.503027,0.0857 1.90897,-0.15514 2.40295,-0.41162 4.917466,-1.63685 6.78416,-3.30565 0.57999,-0.5185 0.527285,-0.51835 1.085715,-0.003 0.149688,0.1381 0.272158,0.29771 0.272158,0.3547 0,0.14812 -1.001318,1.03316 -1.884185,1.66538 -2.063893,1.47797 -4.663644,2.44814 -7.263747,2.71067 -0.448606,0.0453 -0.853706,0.10587 -0.900221,0.13462 -0.0533,0.0329 -0.08458,0.82927 -0.08458,2.15368 v 2.1014 l 0.942092,-0.0512 c 1.127239,-0.0612 2.880059,-0.37448 4.062623,-0.72608 5.319278,-1.58153 9.672917,-5.26984 12.073331,-10.22827 0.915564,-1.89124 1.482101,-3.73292 1.813121,-5.89404 0.173236,-1.131 0.19627,-3.83272 0.04248,-4.98263 C 80.00482,74.66508 79.10747,72.0657 77.710377,69.74927 77.378794,69.19949 77.139295,68.72844 77.17816,68.7025 c 0.03886,-0.0259 0.263575,-0.17251 0.499359,-0.32571 1.787929,-1.161659 1.450004,-4.028416 -0.565116,-4.794101 -1.117118,-0.424472 -2.436921,0.06037 -3.104441,1.140436 -0.09839,0.159197 -0.205949,0.28945 -0.239024,0.28945 -0.03307,0 -0.444347,-0.299079 -0.91394,-0.664621 -2.646508,-2.060093 -5.685287,-3.354971 -9.190374,-3.916172 -1.429806,-0.228927 -4.499401,-0.20331 -5.930749,0.04949 -7.364051,1.300639 -13.16517,6.268048 -15.464276,13.241828 -0.650939,1.97446 -0.946846,3.8937 -0.942302,6.11174 0.0079,3.86801 1.034606,7.31308 3.174146,10.65098 0.201691,0.31465 0.36671,0.6035 0.36671,0.64188 0,0.0384 -0.186269,0.22684 -0.413932,0.41881 -0.279493,0.23567 -0.503518,0.53101 -0.689766,0.90933 -0.239032,0.48554 -0.275586,0.64463 -0.273974,1.19236 0.0032,1.09058 0.562441,2.0008 1.502523,2.44553 1.061403,0.50214 2.275133,0.23215 3.07695,-0.68444 l 0.387351,-0.44281 0.738606,0.54905 c 2.045622,1.5206 4.38971,2.63738 6.809871,3.24439 1.505288,0.37754 2.642101,0.55845 3.621822,0.57637 l 0.565256,0.0103 z m 0.06621,-6.48915 c 0.02617,-3.27802 0.03821,-3.1842 -0.408716,-3.18685 -0.119292,-7.9e-4 -0.50851,-0.0759 -0.86493,-0.16702 -2.537024,-0.64886 -4.668047,-2.61674 -5.542308,-5.11801 -0.249595,-0.71409 -0.447698,-1.67487 -0.461745,-2.23942 -0.0053,-0.21472 -0.02695,-0.32446 -0.04801,-0.24386 -0.03558,0.13616 -0.252587,0.14655 -3.059637,0.14655 h -3.02134 l 0.05276,0.98396 c 0.145925,2.72133 1.321828,5.6045 3.238728,7.94095 0.587727,0.71636 1.931286,1.91604 2.847204,2.5423 1.407296,0.96224 3.222561,1.73512 4.937909,2.10238 0.807562,0.1729 1.908189,0.32382 2.180133,0.29894 0.108656,-0.01 0.128899,-0.423 0.149952,-3.05992 z m 0.01753,-5.97281 v -1.52856 l -0.561581,-0.196 c -1.359977,-0.47463 -2.28313,-1.57524 -2.543554,-3.03249 -0.331412,-1.85446 0.931451,-3.88668 2.711042,-4.36264 l 0.397812,-0.1064 -0.02279,-1.46855 -0.0228,-1.46855 -0.251225,0.0269 c -1.981384,0.21245 -4.020087,1.70422 -5.005857,3.66292 -0.507452,1.00829 -0.661281,1.62885 -0.709125,2.86065 -0.05595,1.44041 0.136413,2.34512 0.760239,3.57557 0.364971,0.71989 0.545325,0.96114 1.22586,1.63981 0.438861,0.43766 1.022048,0.92755 1.295971,1.08864 0.606914,0.35693 1.98277,0.83363 2.411977,0.83571 l 0.314031,0.002 z m 2.072742,-3.03536 c 1.799436,-1.16562 1.616558,-3.87878 -0.331331,-4.91559 -0.298084,-0.15866 -0.488732,-0.19141 -1.113349,-0.19127 -0.653237,1.5e-4 -0.80992,0.0298 -1.175744,0.22219 -0.51805,0.27252 -1.075992,0.86373 -1.312729,1.391 -0.133083,0.29641 -0.179179,0.57322 -0.184355,1.10704 -0.006,0.61648 0.02546,0.78186 0.234728,1.23498 0.269698,0.58394 0.787196,1.11533 1.333523,1.36933 0.288174,0.13398 0.501177,0.15904 1.191527,0.14021 0.822329,-0.0224 0.851878,-0.0302 1.35773,-0.35789 z M 53.28237,77.15482 c 0.221017,-0.81707 0.814627,-1.99502 1.390456,-2.7592 1.243441,-1.65017 3.070882,-2.70743 5.289747,-3.06035 l 0.314031,-0.05 v -2.71781 -2.717803 h -0.449609 c -1.07674,0 -3.079371,0.482746 -4.449272,1.072522 -4.406382,1.897051 -7.53313,5.851121 -8.334744,10.540061 -0.09076,0.53091 -0.165025,1.01808 -0.165025,1.08259 0,0.0984 0.485855,0.11729 3.014696,0.11729 h 3.014696 l 0.0083,0.18842 c 0.0046,0.10363 0.05581,-0.11306 0.113891,-0.48152 0.05809,-0.36846 0.171865,-0.91487 0.252846,-1.21425 z"
       id="path75"
       inkscape:label="copy3"
       transform="translate(-65.453699,-102.595)" />
  </g>
  <g
     inkscape:label="Layer 1"
     inkscape:groupmode="layer"
     id="layer1"
     transform="translate(-65.4537,-102.595)"
     style="display:inline">
    <path
       id="use604"
       style="display:inline;mix-blend-mode:normal;fill:none;stroke:url(#linearGradient1);stroke-width:1.13771"
       d="m 88.632934,125.38982 a 3.2476051,3.3485835 0 0 1 -4.591382,-0.005 3.2476051,3.3485835 0 0 1 0.0025,-4.73414 3.2476051,3.3485835 0 0 1 4.591384,-3.8e-4 3.2476051,3.3485835 0 0 1 0.0032,4.73415"
       inkscape:label="center" />
    <path
       id="use605"
       style="display:inline;fill:none;stroke:url(#linearGradient2);stroke-width:1.32292"
       d="m 91.498281,128.44811 a 7.3093791,7.540626 0 0 1 -10.333815,-0.0124 7.3093791,7.540626 0 0 1 0.0056,-10.66075 7.3093791,7.540626 0 0 1 10.333821,-8.5e-4 7.3093791,7.540626 0 0 1 0.0072,10.66075"
       inkscape:label="inner" />
    <path
       id="use606"
       style="display:inline;fill:none;stroke:url(#linearGradient3);stroke-width:1.32292"
       d="m 96.688981,133.82447 a 14.677311,14.640156 0 0 1 -20.75041,-0.024 14.677311,14.640156 0 0 1 0.01119,-20.69789 14.677311,14.640156 0 0 1 20.750423,-0.002 14.677311,14.640156 0 0 1 0.01451,20.69788"
       inkscape:label="middle" />
    <path
       style="display:inline;fill:url(#linearGradient5);fill-opacity:1;fill-rule:nonzero;stroke:#fafafa;stroke-width:1.32292;stroke-dasharray:none;stroke-opacity:1"
       d="M 86.337367,103.92597 V 119.2718"
       id="use609"
       inkscape:label="top-leg" />
    <path
       style="display:inline;fill:#cccbca;fill-opacity:1;fill-rule:nonzero;stroke:#fafafa;stroke-width:1.32292;stroke-dasharray:none;stroke-opacity:1"
       d="m 86.335123,125.76228 -0.04399,17.97839"
       id="use610"
       inkscape:label="bot-leg" />
    <path
       style="display:inline;fill:#ffffff;fill-opacity:1;fill-rule:nonzero;stroke:#fafafa;stroke-width:1.32292;stroke-dasharray:none;stroke-opacity:1"
       d="m 94.308162,123.01855 h 6.065548"
       id="use611"
       inkscape:label="right-leg" />
    <path
       style="display:inline;fill:#cccbca;fill-opacity:1;fill-rule:nonzero;stroke:#fafafa;stroke-width:1.32292;stroke-dasharray:none;stroke-opacity:1"
       d="m 78.399867,122.97597 h -6.35"
       id="use612"
       inkscape:label="left-leg" />
    <path
       id="use613"
       style="display:inline;fill:none;fill-opacity:1;stroke:url(#linearGradient4);stroke-width:1.32292;stroke-dasharray:none"
       d="m 87.429289,103.2888 a 20.258675,20.219881 0 0 0 -2.538346,0.015 20.258675,20.219881 0 0 0 -12.875182,5.86735 20.258675,20.219881 0 0 0 -2.488737,25.4987 3.2476051,3.3485836 0 0 0 -0.299724,0.26768 3.2476051,3.3485836 0 0 0 -0.0026,4.73408 3.2476051,3.3485836 0 0 0 4.591451,0.006 l 0.0057,-0.006 a 3.2476051,3.3485836 0 0 0 0.168465,-0.18965 20.258675,20.219881 0 0 0 26.651084,-1.69137 l 0.0357,-0.0351 a 20.258675,20.219881 0 0 0 2.74143,-25.1442 3.2476051,3.3485836 0 0 0 0.56018,-0.45062 l 0.006,-0.006 a 3.2476051,3.3485836 0 0 0 -0.003,-4.73408 3.2476051,3.3485836 0 0 0 -4.591453,0 3.2476051,3.3485836 0 0 0 -0.315227,0.38034 20.258675,20.219881 0 0 0 -11.645284,-4.51238 z"
       inkscape:label="outter" />
  </g>
  <g
     inkscape:groupmode="layer"
     id="layer23"
     inkscape:label="Background-Colors"
     style="display:inline">
    <path
       style="display:inline;fill:#48a3cf;fill-opacity:1;fill-rule:nonzero;stroke:#cccbca;stroke-width:0.0937329;stroke-linecap:round;stroke-dasharray:none;stroke-opacity:1;paint-order:markers stroke fill"
       d="m 83.921205,142.81955 c -3.323204,-0.42642 -6.667742,-1.78281 -9.271038,-3.7599 l -0.732281,-0.55613 -0.546432,0.56017 c -0.663728,0.68041 -1.236885,0.91341 -2.062716,0.83853 -1.334873,-0.12105 -2.293725,-1.20789 -2.293725,-2.5999 0,-0.81812 0.273181,-1.40406 0.94287,-2.02237 l 0.51865,-0.47886 -0.516284,-0.79205 c -3.2378,-4.96722 -4.008676,-11.20908 -2.079722,-16.83972 1.696409,-4.95183 5.246284,-8.9619 9.938977,-11.22742 2.092154,-1.01005 4.644384,-1.73247 6.608172,-1.87047 0.40146,-0.0178 0.794876,-0.10615 1.192411,-0.0707 l 0.02612,2.01955 v 2.09044 l -1.059934,0.11255 c -6.141166,0.65212 -11.440818,5.13828 -13.052754,11.04917 -1.219541,4.472 -0.509844,8.918 2.03493,12.74812 0.852979,1.28381 2.741218,3.20136 3.969859,4.03148 2.384754,1.61124 4.322415,2.30407 7.568935,2.70634 l 0.445232,0.0552 v 2.05638 2.05639 l -0.492098,-0.0119 c -0.270653,-0.007 -0.78328,-0.0492 -1.139169,-0.0949 z"
       id="use595"
       inkscape:label="leftOuter-LB"
       transform="translate(-65.453699,-102.595)"
       sodipodi:nodetypes="cscscsscsscccccssssccccccc" />
    <path
       style="display:inline;fill:#062a4a;fill-opacity:1;fill-rule:nonzero;stroke:#cccbca;stroke-width:0.0937329;stroke-linecap:round;stroke-dasharray:none;stroke-opacity:1;paint-order:markers stroke fill"
       d="m 87.000484,140.8876 c 0.0376,-1.12128 0.07516,-2.04572 0.08348,-2.05431 0.0083,-0.009 0.525949,-0.0821 1.150303,-0.16332 4.929039,-0.64125 9.018346,-3.37597 11.506001,-7.69462 2.040502,-3.54239 2.510932,-8.25421 1.221272,-12.23215 -1.246352,-3.84437 -4.109628,-7.18567 -7.700391,-8.98599 -1.609326,-0.80688 -3.77626,-1.4324 -5.435648,-1.56909 l -0.773297,-0.0637 v -2.06281 -2.06281 l 0.926301,0.0564 c 3.409767,0.20773 7.347545,1.74958 10.255276,4.0155 l 0.956839,0.74563 0.187465,-0.22727 c 0.103108,-0.125 0.297186,-0.36996 0.431284,-0.54435 0.134102,-0.17439 0.471541,-0.44118 0.749861,-0.59288 0.41606,-0.22677 0.61439,-0.27525 1.11531,-0.27261 2.48212,0.0131 3.48281,3.3194 1.43758,4.74984 -0.23565,0.16481 -0.48435,0.34184 -0.55267,0.39339 -0.0983,0.0742 -0.0262,0.25 0.34609,0.84359 1.39665,2.22684 2.35236,4.81204 2.77215,7.49864 0.21971,1.40604 0.21971,4.21794 0,5.62398 -1.37406,8.79379 -8.229155,15.45158 -17.029567,16.53942 -0.436849,0.054 -1.00166,0.0982 -1.255133,0.0982 l -0.412569,0.0187 z"
       id="use596"
       inkscape:label="rightOuter-DB"
       transform="translate(-65.453699,-102.595)"
       sodipodi:nodetypes="cccssssccccccssscsccccsscc" />
    <path
       style="display:inline;fill:#062a4a;fill-opacity:1;fill-rule:nonzero;stroke:#cccbca;stroke-width:0.0937329;stroke-linecap:round;stroke-dasharray:none;stroke-opacity:1;paint-order:markers stroke fill"
       d="m 87.0522,134.34296 v -3.03955 h 0.219339 c 0.418767,0 1.705988,-0.37971 2.396863,-0.70704 1.845432,-0.87435 3.349747,-2.4766 4.083791,-4.34966 0.197586,-0.50417 0.328692,-1.03466 0.574556,-2.32477 l 0.04019,-0.2109 h 2.950802 2.950799 v 0.41502 c 0,1.17811 -0.452015,3.18653 -1.044764,4.64213 -1.723073,4.23131 -5.639163,7.44368 -10.156322,8.33124 -0.51553,0.10129 -1.179862,0.20642 -1.476293,0.23362 l -0.538964,0.0495 z"
       id="use597"
       inkscape:label="BotRightQTR-DB"
       transform="translate(-65.453699,-102.595)" />
    <path
       style="display:inline;fill:#062a4a;fill-opacity:1;fill-rule:nonzero;stroke:#cccbca;stroke-width:0.0937329;stroke-linecap:round;stroke-dasharray:none;stroke-opacity:1;paint-order:markers stroke fill"
       d="m 94.20376,121.62548 c -0.342082,-2.14968 -1.762517,-4.31849 -3.610681,-5.51301 -0.757738,-0.48975 -1.751307,-0.88626 -2.720716,-1.08577 L 87.0522,114.85791 v -2.65027 -2.65027 h 0.271883 c 0.149537,0 0.751456,0.082 1.337596,0.18219 4.997023,0.85428 9.083494,4.27405 10.811435,9.04756 0.291444,0.80513 0.585156,2.04286 0.740256,3.11956 l 0.0574,0.39837 h -2.979429 -2.979433 z"
       id="use598"
       inkscape:label="TopRightQTR-DB"
       transform="translate(-65.453699,-102.595)" />
    <path
       style="display:inline;fill:#062a4a;fill-opacity:1;fill-rule:nonzero;stroke:#cccbca;stroke-width:0.0937329;stroke-linecap:round;stroke-dasharray:none;stroke-opacity:1;paint-order:markers stroke fill"
       d="m 87.0522,128.40987 v -1.48755 l 0.434818,-0.12174 c 0.614104,-0.17194 1.46617,-0.76988 1.858304,-1.30407 0.448673,-0.61121 0.676339,-1.15157 0.793078,-1.88234 0.309385,-1.93666 -0.839031,-3.78305 -2.734701,-4.39678 l -0.351499,-0.1138 v -1.39873 c 0,-0.76929 -0.03502,-1.40643 0.0036,-1.40567 0.03866,8e-4 0.400262,0.0718 0.72208,0.14768 2.70805,0.63851 4.711748,2.93538 5.099172,5.84527 0.367919,2.76338 -1.1,5.59504 -3.574524,6.89537 -0.546549,0.2872 -1.961201,0.70282 -2.27691,0.70282 -0.09124,0 0.02654,-0.34036 0.02654,-1.48046 z"
       id="use599"
       inkscape:label="RightInner-DB"
       transform="translate(-65.453699,-102.595)"
       sodipodi:nodetypes="scsscscsccsssss" />
    <path
       style="display:inline;fill:#062a4a;fill-opacity:1;fill-rule:nonzero;stroke:#cccbca;stroke-width:0.0937329;stroke-linecap:round;stroke-dasharray:none;stroke-opacity:1;paint-order:markers stroke fill"
       d="m 85.120209,125.40287 c -0.917924,-0.52649 -1.383376,-1.33011 -1.387051,-2.39483 -0.0037,-1.06622 0.558294,-1.9847 1.494628,-2.44281 1.710997,-0.83711 3.695184,0.44256 3.698156,2.38507 0.0011,0.77539 -0.132549,1.20161 -0.550577,1.7547 -0.507452,0.67141 -1.149234,0.97467 -2.0603,0.97356 -0.619196,-8e-4 -0.780346,-0.038 -1.194856,-0.27569 z"
       id="use600"
       inkscape:label="Center-DB"
       transform="translate(-65.453699,-102.595)" />
    <path
       style="display:inline;fill:#062a4a;fill-opacity:1;fill-rule:nonzero;stroke:#cccbca;stroke-width:0.0937329;stroke-linecap:round;stroke-dasharray:none;stroke-opacity:1;paint-order:markers stroke fill"
       d="m 84.802609,129.75054 c -0.283543,-0.074 -0.907889,-0.32722 -1.387433,-0.56272 -0.69551,-0.34157 -1.017878,-0.57413 -1.593461,-1.14957 -1.473338,-1.47297 -2.153945,-3.22132 -2.049406,-5.26454 0.128602,-2.51352 1.458798,-4.62013 3.641616,-5.76717 0.516519,-0.27143 1.902161,-0.7204 2.220195,-0.7204 0.04331,0 0.01209,0.64784 0.01209,1.4152 v 1.39521 l -0.492096,0.15709 c -1.377058,0.4396 -2.36514,1.64445 -2.622553,3.19789 -0.307827,1.85768 0.926971,3.85828 2.685238,4.35057 l 0.429411,0.12022 v 1.48755 c 0,1.68776 0.06861,1.57873 -0.843595,1.34067 z"
       id="use601"
       inkscape:label="LeftInner-DB"
       transform="translate(-65.453699,-102.595)"
       sodipodi:nodetypes="scsscsscssccsss" />
    <path
       style="display:inline;fill:#062a4a;fill-opacity:1;fill-rule:nonzero;stroke:#cccbca;stroke-width:0.0937329;stroke-linecap:round;stroke-dasharray:none;stroke-opacity:1"
       d="m 72.467273,121.76608 c 0.725967,-6.34885 6.071875,-11.553 12.499367,-12.16792 l 0.679564,-0.065 v 2.67471 2.6747 l -0.492096,0.0669 c -1.610291,0.21874 -3.278153,1.09468 -4.481499,2.35363 -1.284684,1.34405 -1.88908,2.59469 -2.292741,4.74425 l -0.04841,0.25777 H 75.368549 72.40564 Z"
       id="use602"
       inkscape:label="TopLeftQTR-DB"
       transform="translate(-65.453699,-102.595)" />
    <path
       style="display:inline;fill:#062a4a;fill-opacity:1;fill-rule:nonzero;stroke:#cccbca;stroke-width:0.0937329;stroke-linecap:round;stroke-dasharray:none;stroke-opacity:1;paint-order:markers stroke fill"
       d="m 85.03694,137.33424 c -2.434971,-0.29206 -4.513416,-1.02901 -6.37384,-2.25996 -3.669738,-2.42808 -5.884917,-6.19739 -6.27868,-10.68367 l -0.05965,-0.67957 h 2.999386 2.999387 l 0.05885,0.44523 c 0.09748,0.7374 0.494435,2.05007 0.808053,2.67208 1.18289,2.34607 3.324478,3.97568 5.776184,4.39531 l 0.679564,0.11631 v 3.02804 c 0,2.10776 0.0897,2.77369 -0.0579,2.95467 -0.08761,0.10742 -0.300574,0.0417 -0.551361,0.0115 z"
       id="use603"
       inkscape:label="BotLeftQTR-DB"
       transform="translate(-65.453699,-102.595)"
       sodipodi:nodetypes="cssccccsscsscc" />
  </g>
</svg>
